<?xml version="1.0"?>
<Project_Data Version="8.00">
<Project_Settings>
<ProfileName>MP4 only (up to 1080p)</ProfileName>
<ProjectWidth>1278</ProjectWidth>
<ProjectHeight>720</ProjectHeight>
<IsCustomProject>1</IsCustomProject>
<SavedProjectSettings>1</SavedProjectSettings>
<LastFlashTemplate>-1</LastFlashTemplate>
</Project_Settings>


<AutoSaveFile>C:\Users\Tanmay\AppData\Local\TechSmith\Camtasia Studio\8.0\Auto-Saves\whole video11e6fd2d.autosave.camproj</AutoSaveFile>

<ProjectID>FA84A2B3-3566-42A6-9624-2F2FB0506AEE</ProjectID>

<PowerPointProject>0</PowerPointProject>

<PowerPointFilename></PowerPointFilename>


<Project_Notes>
</Project_Notes>

<Project_MetaData>
<Project_MetaData_Object>
<FieldArrayKey>8</FieldArrayKey>
<Value>whole video</Value>
</Project_MetaData_Object>
<Project_MetaData_Object>
<FieldArrayKey>13</FieldArrayKey>
<Value>2014-10-30 06:06:22 PM</Value>
</Project_MetaData_Object>
<Project_MetaData_Object>
<FieldArrayKey>16</FieldArrayKey>
<Value>ENU</Value>
</Project_MetaData_Object>
</Project_MetaData>

<CSMLData>
 <GoProject id="1" version="3.0" >
  <Project id="2" editRate="30/1" version="3.0" >
   <Author></Author>
   <Comment></Comment>
   <System></System>
   <SourceBin id="3"  >
     <Source id="4" src="capture-1.trec" lastMod="20141030T221400" rect="(0,0,1364,768)" >
       <SourceTrack range="(0,4652)" type="0" editRate="30/1" trackRect="(0,0,1364,768)" sampleRate="0/1" bitDepth="0" numChannels="0" filename="capture-1.trec!Strack0.tsc2" metaData="capture-1.trec;" />
       <SourceTrack range="(0,6858752)" type="2" editRate="44100/1" trackRect="(0,0,0,0)" sampleRate="44100/1" bitDepth="16" numChannels="2" filename="capture-1.trec!Maudio1.mp4" metaData="" />
       <SourceTrack range="(0,6837248)" type="2" editRate="44100/1" trackRect="(0,0,0,0)" sampleRate="44100/1" bitDepth="16" numChannels="2" filename="capture-1.trec!$audio2.mp4" metaData="" />
     </Source>
     <Source id="5" src="capture-2.trec" lastMod="20141030T232645" rect="(0,0,1292,728)" >
       <SourceTrack range="(0,3516)" type="0" editRate="30/1" trackRect="(0,0,1292,728)" sampleRate="0/1" bitDepth="0" numChannels="0" filename="capture-2.trec!Strack0.tsc2" metaData="capture-2.trec;" />
       <SourceTrack range="(0,5160960)" type="2" editRate="44100/1" trackRect="(0,0,0,0)" sampleRate="44100/1" bitDepth="16" numChannels="2" filename="capture-2.trec!Maudio1.mp4" metaData="" />
       <SourceTrack range="(0,5160960)" type="2" editRate="44100/1" trackRect="(0,0,0,0)" sampleRate="44100/1" bitDepth="16" numChannels="2" filename="capture-2.trec!$audio2.mp4" metaData="" />
     </Source>
     <Source id="6" src="capture-3.trec" lastMod="20141030T234433" rect="(0,0,1292,728)" >
       <SourceTrack range="(0,2124)" type="0" editRate="30/1" trackRect="(0,0,1292,728)" sampleRate="0/1" bitDepth="0" numChannels="0" filename="capture-3.trec!Strack0.tsc2" metaData="capture-3.trec;" />
       <SourceTrack range="(0,3132416)" type="2" editRate="44100/1" trackRect="(0,0,0,0)" sampleRate="44100/1" bitDepth="16" numChannels="2" filename="capture-3.trec!Maudio1.mp4" metaData="" />
       <SourceTrack range="(0,3088384)" type="2" editRate="44100/1" trackRect="(0,0,0,0)" sampleRate="44100/1" bitDepth="16" numChannels="2" filename="capture-3.trec!$audio2.mp4" metaData="" />
     </Source>
     <Source id="7" src="capture-4.trec" lastMod="20141031T010912" rect="(0,0,1292,728)" >
       <SourceTrack range="(0,2284)" type="0" editRate="30/1" trackRect="(0,0,1292,728)" sampleRate="0/1" bitDepth="0" numChannels="0" filename="capture-4.trec!Strack0.tsc2" metaData="capture-4.trec;" />
       <SourceTrack range="(0,3353600)" type="2" editRate="44100/1" trackRect="(0,0,0,0)" sampleRate="44100/1" bitDepth="16" numChannels="2" filename="capture-4.trec!Maudio1.mp4" metaData="" />
       <SourceTrack range="(0,3353600)" type="2" editRate="44100/1" trackRect="(0,0,0,0)" sampleRate="44100/1" bitDepth="16" numChannels="2" filename="capture-4.trec!$audio2.mp4" metaData="" />
     </Source>
     <Source id="8" src="capture-5.trec" lastMod="20141031T013630" rect="(0,0,1292,728)" >
       <SourceTrack range="(0,1832)" type="0" editRate="30/1" trackRect="(0,0,1292,728)" sampleRate="0/1" bitDepth="0" numChannels="0" filename="capture-5.trec!Strack0.tsc2" metaData="capture-5.trec;" />
       <SourceTrack range="(0,2713600)" type="2" editRate="44100/1" trackRect="(0,0,0,0)" sampleRate="44100/1" bitDepth="16" numChannels="2" filename="capture-5.trec!Maudio1.mp4" metaData="" />
       <SourceTrack range="(0,2692096)" type="2" editRate="44100/1" trackRect="(0,0,0,0)" sampleRate="44100/1" bitDepth="16" numChannels="2" filename="capture-5.trec!$audio2.mp4" metaData="" />
     </Source>
     <Source id="9" src="capture-6.trec" lastMod="20141031T021002" rect="(0,0,1292,728)" >
       <SourceTrack range="(0,2201)" type="0" editRate="30/1" trackRect="(0,0,1292,728)" sampleRate="0/1" bitDepth="0" numChannels="0" filename="capture-6.trec!Strack0.tsc2" metaData="capture-6.trec;" />
       <SourceTrack range="(0,3243008)" type="2" editRate="44100/1" trackRect="(0,0,0,0)" sampleRate="44100/1" bitDepth="16" numChannels="2" filename="capture-6.trec!Maudio1.mp4" metaData="" />
       <SourceTrack range="(0,3220480)" type="2" editRate="44100/1" trackRect="(0,0,0,0)" sampleRate="44100/1" bitDepth="16" numChannels="2" filename="capture-6.trec!$audio2.mp4" metaData="" />
     </Source>
     <Source id="10" src="capture-7.trec" lastMod="20141031T021847" rect="(0,0,1292,728)" >
       <SourceTrack range="(0,775)" type="0" editRate="30/1" trackRect="(0,0,1292,728)" sampleRate="0/1" bitDepth="0" numChannels="0" filename="capture-7.trec!Strack0.tsc2" metaData="capture-7.trec;" />
       <SourceTrack range="(0,1147904)" type="2" editRate="44100/1" trackRect="(0,0,0,0)" sampleRate="44100/1" bitDepth="16" numChannels="2" filename="capture-7.trec!Maudio1.mp4" metaData="" />
       <SourceTrack range="(0,1103872)" type="2" editRate="44100/1" trackRect="(0,0,0,0)" sampleRate="44100/1" bitDepth="16" numChannels="2" filename="capture-7.trec!$audio2.mp4" metaData="" />
     </Source>
     <Source id="11" src="capture-8.trec" lastMod="20141031T022628" rect="(0,0,1292,728)" >
       <SourceTrack range="(0,1481)" type="0" editRate="30/1" trackRect="(0,0,1292,728)" sampleRate="0/1" bitDepth="0" numChannels="0" filename="capture-8.trec!Strack0.tsc2" metaData="capture-8.trec;" />
       <SourceTrack range="(0,2206720)" type="2" editRate="44100/1" trackRect="(0,0,0,0)" sampleRate="44100/1" bitDepth="16" numChannels="2" filename="capture-8.trec!Maudio1.mp4" metaData="" />
       <SourceTrack range="(0,2162688)" type="2" editRate="44100/1" trackRect="(0,0,0,0)" sampleRate="44100/1" bitDepth="16" numChannels="2" filename="capture-8.trec!$audio2.mp4" metaData="" />
     </Source>
     <Source id="12" src="capture-9.trec" lastMod="20141031T023452" rect="(0,0,1292,728)" >
       <SourceTrack range="(0,1946)" type="0" editRate="30/1" trackRect="(0,0,1292,728)" sampleRate="0/1" bitDepth="0" numChannels="0" filename="capture-9.trec!Strack0.tsc2" metaData="capture-9.trec;" />
       <SourceTrack range="(0,2868224)" type="2" editRate="44100/1" trackRect="(0,0,0,0)" sampleRate="44100/1" bitDepth="16" numChannels="2" filename="capture-9.trec!Maudio1.mp4" metaData="" />
       <SourceTrack range="(0,2868224)" type="2" editRate="44100/1" trackRect="(0,0,0,0)" sampleRate="44100/1" bitDepth="16" numChannels="2" filename="capture-9.trec!$audio2.mp4" metaData="" />
     </Source>
     <Source id="13" src="capture-10.trec" lastMod="20141031T024403" rect="(0,0,1292,728)" >
       <SourceTrack range="(0,1121)" type="0" editRate="30/1" trackRect="(0,0,1292,728)" sampleRate="0/1" bitDepth="0" numChannels="0" filename="capture-10.trec!Strack0.tsc2" metaData="capture-10.trec;" />
       <SourceTrack range="(0,1654784)" type="2" editRate="44100/1" trackRect="(0,0,0,0)" sampleRate="44100/1" bitDepth="16" numChannels="2" filename="capture-10.trec!Maudio1.mp4" metaData="" />
       <SourceTrack range="(0,1633280)" type="2" editRate="44100/1" trackRect="(0,0,0,0)" sampleRate="44100/1" bitDepth="16" numChannels="2" filename="capture-10.trec!$audio2.mp4" metaData="" />
     </Source>
     <Source id="14" src="capture-11.trec" lastMod="20141031T025040" rect="(0,0,1292,728)" >
       <SourceTrack range="(0,839)" type="0" editRate="30/1" trackRect="(0,0,1292,728)" sampleRate="0/1" bitDepth="0" numChannels="0" filename="capture-11.trec!Strack0.tsc2" metaData="capture-11.trec;" />
       <SourceTrack range="(0,1235968)" type="2" editRate="44100/1" trackRect="(0,0,0,0)" sampleRate="44100/1" bitDepth="16" numChannels="2" filename="capture-11.trec!Maudio1.mp4" metaData="" />
       <SourceTrack range="(0,1235968)" type="2" editRate="44100/1" trackRect="(0,0,0,0)" sampleRate="44100/1" bitDepth="16" numChannels="2" filename="capture-11.trec!$audio2.mp4" metaData="" />
     </Source>
     <Source id="15" src="capture-12.trec" lastMod="20141031T033739" rect="(0,0,1292,728)" >
       <SourceTrack range="(0,3564)" type="0" editRate="30/1" trackRect="(0,0,1292,728)" sampleRate="0/1" bitDepth="0" numChannels="0" filename="capture-12.trec!Strack0.tsc2" metaData="capture-12.trec;" />
       <SourceTrack range="(0,5227520)" type="2" editRate="44100/1" trackRect="(0,0,0,0)" sampleRate="44100/1" bitDepth="16" numChannels="2" filename="capture-12.trec!Maudio1.mp4" metaData="" />
       <SourceTrack range="(0,5204992)" type="2" editRate="44100/1" trackRect="(0,0,0,0)" sampleRate="44100/1" bitDepth="16" numChannels="2" filename="capture-12.trec!$audio2.mp4" metaData="" />
     </Source>
     <Source id="16" src="capture-13.trec" lastMod="20141031T034951" rect="(0,0,1292,728)" >
       <SourceTrack range="(0,9198)" type="0" editRate="30/1" trackRect="(0,0,1292,728)" sampleRate="0/1" bitDepth="0" numChannels="0" filename="capture-13.trec!Strack0.tsc2" metaData="capture-13.trec;" />
       <SourceTrack range="(0,13517824)" type="2" editRate="44100/1" trackRect="(0,0,0,0)" sampleRate="44100/1" bitDepth="16" numChannels="2" filename="capture-13.trec!Maudio1.mp4" metaData="" />
       <SourceTrack range="(0,13496320)" type="2" editRate="44100/1" trackRect="(0,0,0,0)" sampleRate="44100/1" bitDepth="16" numChannels="2" filename="capture-13.trec!$audio2.mp4" metaData="" />
     </Source>
     <Source id="17" src="capture-14.trec" lastMod="20141031T040617" rect="(0,0,1292,728)" >
       <SourceTrack range="(0,4902)" type="0" editRate="30/1" trackRect="(0,0,1292,728)" sampleRate="0/1" bitDepth="0" numChannels="0" filename="capture-14.trec!Strack0.tsc2" metaData="capture-14.trec;" />
       <SourceTrack range="(0,7212032)" type="2" editRate="44100/1" trackRect="(0,0,0,0)" sampleRate="44100/1" bitDepth="16" numChannels="2" filename="capture-14.trec!Maudio1.mp4" metaData="" />
       <SourceTrack range="(0,7189504)" type="2" editRate="44100/1" trackRect="(0,0,0,0)" sampleRate="44100/1" bitDepth="16" numChannels="2" filename="capture-14.trec!$audio2.mp4" metaData="" />
     </Source>
     <Source id="18" src="capture-15.trec" lastMod="20141031T041412" rect="(0,0,1292,728)" >
       <SourceTrack range="(0,2331)" type="0" editRate="30/1" trackRect="(0,0,1292,728)" sampleRate="0/1" bitDepth="0" numChannels="0" filename="capture-15.trec!Strack0.tsc2" metaData="capture-15.trec;" />
       <SourceTrack range="(0,3441664)" type="2" editRate="44100/1" trackRect="(0,0,0,0)" sampleRate="44100/1" bitDepth="16" numChannels="2" filename="capture-15.trec!Maudio1.mp4" metaData="" />
       <SourceTrack range="(0,3397632)" type="2" editRate="44100/1" trackRect="(0,0,0,0)" sampleRate="44100/1" bitDepth="16" numChannels="2" filename="capture-15.trec!$audio2.mp4" metaData="" />
     </Source>
   </SourceBin>
   <Timeline id="19"  >
    <Attributes>
     <Attribute id="20" value="1278" name="width"/>
     <Attribute id="21" value="720" name="height"/>
     <Attribute id="22" value="(0,0,0,255)" name="backgroundColor"/>
    </Attributes>
     <GenericMixer id="23"  name="Unified Mixer">
      <MetaData>
       <entry key="MixerType" val="TimelineMixer"/>
      </MetaData>
      <Tracks>
       <GenericTrack id="24"  >
        <Attributes>
         <Attribute id="25" value="" name="ident"/>
         <Attribute id="26" value="0" name="audioMuted"/>
         <Attribute id="27" value="0" name="videoHidden"/>
        </Attributes>
        <MetaData>
         <entry key="IsLocked" val="False"/>
         <entry key="WinTrackHeight" val="62"/>
        </MetaData>
        <Medias>
         <AMFile id="28" start="0" duration="4651" scalar="1/1" mediaStart="0/1" mediaDuration="4651/1" trackNumber="2" src="4" channelNumber="0,1" >
          <Parameters>
           <InterpolatingParam id="29" interp="linr"  time="0/1" value="1" leadInLength="0/1"  name="volume"/>
           <Parameter id="30"  name="captions"/>
          </Parameters>
          <Attributes>
           <Attribute id="31" value="" name="ident"/>
           <Attribute id="32" value="44100" name="sampleRate"/>
           <Attribute id="33" value="16" name="bitDepth"/>
           <Attribute id="34" value="1" name="gain"/>
           <Attribute id="35" value="0" name="mixToMono"/>
          </Attributes>
          <MetaData>
           <entry key="WinSubProjectDisplayName" val=""/>
          </MetaData>
         </AMFile>
         <AMFile id="36" start="4652" duration="3510" scalar="1/1" mediaStart="0/1" mediaDuration="3510/1" trackNumber="2" src="5" channelNumber="0,1" >
          <Parameters>
           <InterpolatingParam id="37" interp="linr"  time="0/1" value="1" leadInLength="0/1"  name="volume"/>
           <Parameter id="38"  name="captions"/>
          </Parameters>
          <Attributes>
           <Attribute id="39" value="" name="ident"/>
           <Attribute id="40" value="44100" name="sampleRate"/>
           <Attribute id="41" value="16" name="bitDepth"/>
           <Attribute id="42" value="1" name="gain"/>
           <Attribute id="43" value="0" name="mixToMono"/>
          </Attributes>
          <MetaData>
           <entry key="WinSubProjectDisplayName" val=""/>
          </MetaData>
         </AMFile>
         <AMFile id="44" start="8162" duration="2100" scalar="1/1" mediaStart="0/1" mediaDuration="2100/1" trackNumber="2" src="6" channelNumber="0,1" >
          <Parameters>
           <InterpolatingParam id="45" interp="linr"  time="0/1" value="1" leadInLength="0/1"  name="volume"/>
           <Parameter id="46"  name="captions"/>
          </Parameters>
          <Attributes>
           <Attribute id="47" value="" name="ident"/>
           <Attribute id="48" value="44100" name="sampleRate"/>
           <Attribute id="49" value="16" name="bitDepth"/>
           <Attribute id="50" value="1" name="gain"/>
           <Attribute id="51" value="0" name="mixToMono"/>
          </Attributes>
          <MetaData>
           <entry key="WinSubProjectDisplayName" val=""/>
          </MetaData>
         </AMFile>
         <AMFile id="52" start="10286" duration="2281" scalar="1/1" mediaStart="0/1" mediaDuration="2281/1" trackNumber="2" src="7" channelNumber="0,1" >
          <Parameters>
           <InterpolatingParam id="53" interp="linr"  time="0/1" value="1" leadInLength="0/1"  name="volume"/>
           <Parameter id="54"  name="captions"/>
          </Parameters>
          <Attributes>
           <Attribute id="55" value="" name="ident"/>
           <Attribute id="56" value="44100" name="sampleRate"/>
           <Attribute id="57" value="16" name="bitDepth"/>
           <Attribute id="58" value="1" name="gain"/>
           <Attribute id="59" value="0" name="mixToMono"/>
          </Attributes>
          <MetaData>
           <entry key="WinSubProjectDisplayName" val=""/>
          </MetaData>
         </AMFile>
         <AMFile id="60" start="12567" duration="1831" scalar="1/1" mediaStart="0/1" mediaDuration="1831/1" trackNumber="2" src="8" channelNumber="0,1" >
          <Parameters>
           <InterpolatingParam id="61" interp="linr"  time="0/1" value="1" leadInLength="0/1"  name="volume"/>
           <Parameter id="62"  name="captions"/>
          </Parameters>
          <Attributes>
           <Attribute id="63" value="" name="ident"/>
           <Attribute id="64" value="44100" name="sampleRate"/>
           <Attribute id="65" value="16" name="bitDepth"/>
           <Attribute id="66" value="1" name="gain"/>
           <Attribute id="67" value="0" name="mixToMono"/>
          </Attributes>
          <MetaData>
           <entry key="WinSubProjectDisplayName" val=""/>
          </MetaData>
         </AMFile>
         <AMFile id="68" start="14399" duration="2190" scalar="1/1" mediaStart="0/1" mediaDuration="2190/1" trackNumber="2" src="9" channelNumber="0,1" >
          <Parameters>
           <InterpolatingParam id="69" interp="linr"  time="0/1" value="1" leadInLength="0/1"  name="volume"/>
           <Parameter id="70"  name="captions"/>
          </Parameters>
          <Attributes>
           <Attribute id="71" value="" name="ident"/>
           <Attribute id="72" value="44100" name="sampleRate"/>
           <Attribute id="73" value="16" name="bitDepth"/>
           <Attribute id="74" value="1" name="gain"/>
           <Attribute id="75" value="0" name="mixToMono"/>
          </Attributes>
          <MetaData>
           <entry key="WinSubProjectDisplayName" val=""/>
          </MetaData>
         </AMFile>
         <AMFile id="76" start="16600" duration="750" scalar="1/1" mediaStart="0/1" mediaDuration="750/1" trackNumber="2" src="10" channelNumber="0,1" >
          <Parameters>
           <InterpolatingParam id="77" interp="linr"  time="0/1" value="1" leadInLength="0/1"  name="volume"/>
           <Parameter id="78"  name="captions"/>
          </Parameters>
          <Attributes>
           <Attribute id="79" value="" name="ident"/>
           <Attribute id="80" value="44100" name="sampleRate"/>
           <Attribute id="81" value="16" name="bitDepth"/>
           <Attribute id="82" value="1" name="gain"/>
           <Attribute id="83" value="0" name="mixToMono"/>
          </Attributes>
          <MetaData>
           <entry key="WinSubProjectDisplayName" val=""/>
          </MetaData>
         </AMFile>
         <AMFile id="84" start="17375" duration="1471" scalar="1/1" mediaStart="0/1" mediaDuration="1471/1" trackNumber="2" src="11" channelNumber="0,1" >
          <Parameters>
           <InterpolatingParam id="85" interp="linr"  time="0/1" value="1" leadInLength="0/1"  name="volume"/>
           <Parameter id="86"  name="captions"/>
          </Parameters>
          <Attributes>
           <Attribute id="87" value="" name="ident"/>
           <Attribute id="88" value="44100" name="sampleRate"/>
           <Attribute id="89" value="16" name="bitDepth"/>
           <Attribute id="90" value="1" name="gain"/>
           <Attribute id="91" value="0" name="mixToMono"/>
          </Attributes>
          <MetaData>
           <entry key="WinSubProjectDisplayName" val=""/>
          </MetaData>
         </AMFile>
         <AMFile id="92" start="18856" duration="1951" scalar="1/1" mediaStart="0/1" mediaDuration="1951/1" trackNumber="2" src="12" channelNumber="0,1" >
          <Parameters>
           <InterpolatingParam id="93" interp="linr"  time="0/1" value="1" leadInLength="0/1"  name="volume"/>
           <Parameter id="94"  name="captions"/>
          </Parameters>
          <Attributes>
           <Attribute id="95" value="" name="ident"/>
           <Attribute id="96" value="44100" name="sampleRate"/>
           <Attribute id="97" value="16" name="bitDepth"/>
           <Attribute id="98" value="1" name="gain"/>
           <Attribute id="99" value="0" name="mixToMono"/>
          </Attributes>
          <MetaData>
           <entry key="WinSubProjectDisplayName" val=""/>
          </MetaData>
         </AMFile>
         <AMFile id="100" start="20807" duration="1111" scalar="1/1" mediaStart="0/1" mediaDuration="1111/1" trackNumber="2" src="13" channelNumber="0,1" >
          <Parameters>
           <InterpolatingParam id="101" interp="linr"  time="0/1" value="1" leadInLength="0/1"  name="volume"/>
           <Parameter id="102"  name="captions"/>
          </Parameters>
          <Attributes>
           <Attribute id="103" value="" name="ident"/>
           <Attribute id="104" value="44100" name="sampleRate"/>
           <Attribute id="105" value="16" name="bitDepth"/>
           <Attribute id="106" value="1" name="gain"/>
           <Attribute id="107" value="0" name="mixToMono"/>
          </Attributes>
          <MetaData>
           <entry key="WinSubProjectDisplayName" val=""/>
          </MetaData>
         </AMFile>
         <AMFile id="108" start="21918" duration="840" scalar="1/1" mediaStart="0/1" mediaDuration="840/1" trackNumber="2" src="14" channelNumber="0,1" >
          <Parameters>
           <InterpolatingParam id="109" interp="linr"  time="0/1" value="1" leadInLength="0/1"  name="volume"/>
           <Parameter id="110"  name="captions"/>
          </Parameters>
          <Attributes>
           <Attribute id="111" value="" name="ident"/>
           <Attribute id="112" value="44100" name="sampleRate"/>
           <Attribute id="113" value="16" name="bitDepth"/>
           <Attribute id="114" value="1" name="gain"/>
           <Attribute id="115" value="0" name="mixToMono"/>
          </Attributes>
          <MetaData>
           <entry key="WinSubProjectDisplayName" val=""/>
          </MetaData>
         </AMFile>
         <AMFile id="116" start="22758" duration="3540" scalar="1/1" mediaStart="0/1" mediaDuration="3540/1" trackNumber="2" src="15" channelNumber="0,1" >
          <Parameters>
           <InterpolatingParam id="117" interp="linr"  time="0/1" value="1" leadInLength="0/1"  name="volume"/>
           <Parameter id="118"  name="captions"/>
          </Parameters>
          <Attributes>
           <Attribute id="119" value="" name="ident"/>
           <Attribute id="120" value="44100" name="sampleRate"/>
           <Attribute id="121" value="16" name="bitDepth"/>
           <Attribute id="122" value="1" name="gain"/>
           <Attribute id="123" value="0" name="mixToMono"/>
          </Attributes>
          <MetaData>
           <entry key="WinSubProjectDisplayName" val=""/>
          </MetaData>
         </AMFile>
         <AMFile id="124" start="26318" duration="9181" scalar="1/1" mediaStart="0/1" mediaDuration="9181/1" trackNumber="2" src="16" channelNumber="0,1" >
          <Parameters>
           <InterpolatingParam id="125" interp="linr"  time="0/1" value="1" leadInLength="0/1"  name="volume"/>
           <Parameter id="126"  name="captions"/>
          </Parameters>
          <Attributes>
           <Attribute id="127" value="" name="ident"/>
           <Attribute id="128" value="44100" name="sampleRate"/>
           <Attribute id="129" value="16" name="bitDepth"/>
           <Attribute id="130" value="1" name="gain"/>
           <Attribute id="131" value="0" name="mixToMono"/>
          </Attributes>
          <MetaData>
           <entry key="WinSubProjectDisplayName" val=""/>
          </MetaData>
         </AMFile>
         <AMFile id="132" start="35513" duration="4890" scalar="1/1" mediaStart="0/1" mediaDuration="4890/1" trackNumber="2" src="17" channelNumber="0,1" >
          <Parameters>
           <InterpolatingParam id="133" interp="linr"  time="0/1" value="1" leadInLength="0/1"  name="volume"/>
           <Parameter id="134"  name="captions"/>
          </Parameters>
          <Attributes>
           <Attribute id="135" value="" name="ident"/>
           <Attribute id="136" value="44100" name="sampleRate"/>
           <Attribute id="137" value="16" name="bitDepth"/>
           <Attribute id="138" value="1" name="gain"/>
           <Attribute id="139" value="0" name="mixToMono"/>
          </Attributes>
          <MetaData>
           <entry key="WinSubProjectDisplayName" val=""/>
          </MetaData>
         </AMFile>
         <AMFile id="140" start="40415" duration="2311" scalar="1/1" mediaStart="0/1" mediaDuration="2311/1" trackNumber="2" src="18" channelNumber="0,1" >
          <Parameters>
           <InterpolatingParam id="141" interp="linr"  time="0/1" value="1" leadInLength="0/1"  name="volume"/>
           <Parameter id="142"  name="captions"/>
          </Parameters>
          <Attributes>
           <Attribute id="143" value="" name="ident"/>
           <Attribute id="144" value="44100" name="sampleRate"/>
           <Attribute id="145" value="16" name="bitDepth"/>
           <Attribute id="146" value="1" name="gain"/>
           <Attribute id="147" value="0" name="mixToMono"/>
          </Attributes>
          <MetaData>
           <entry key="WinSubProjectDisplayName" val=""/>
          </MetaData>
         </AMFile>
        </Medias>
       </GenericTrack>
       <GenericTrack id="148"  >
        <Attributes>
         <Attribute id="149" value="" name="ident"/>
         <Attribute id="150" value="0" name="audioMuted"/>
         <Attribute id="151" value="0" name="videoHidden"/>
        </Attributes>
        <MetaData>
         <entry key="IsLocked" val="False"/>
         <entry key="WinTrackHeight" val="62"/>
        </MetaData>
        <Medias>
         <UnifiedMedia id="152"  >
          <AMFile id="153" start="0" duration="4652" scalar="1/1" mediaStart="0/1" mediaDuration="4652/1" trackNumber="1" src="4" channelNumber="0,1" >
           <Parameters>
            <InterpolatingParam id="154" interp="linr"  time="0/1" value="1" leadInLength="0/1"  name="volume"/>
            <Parameter id="155"  name="captions"/>
           </Parameters>
           <Attributes>
            <Attribute id="156" value="" name="ident"/>
            <Attribute id="157" value="44100" name="sampleRate"/>
            <Attribute id="158" value="16" name="bitDepth"/>
            <Attribute id="159" value="1" name="gain"/>
            <Attribute id="160" value="0" name="mixToMono"/>
           </Attributes>
          </AMFile>
          <ScreenVMFile id="161" start="0" duration="4652" scalar="1/1" mediaStart="0/1" mediaDuration="4652/1" trackNumber="0" src="4" >
           <Transformer>
            <VectorParam id="162"  name="translation">
             <InterpolatingParam id="163" interp="linr"  time="-9999999/1" value="0" leadInLength="0/1"  interpolater="leadin-linr"  />
             <InterpolatingParam id="164" interp="linr"  time="-9999999/1" value="0" leadInLength="0/1"  interpolater="leadin-linr"  />
             <InterpolatingParam id="165" interp="linr"  time="-9999999/1" value="0" leadInLength="0/1"  interpolater="leadin-linr"  />
            </VectorParam>
            <VectorParam id="166"  name="rotation">
             <InterpolatingParam id="167" interp="linr"  time="-9999999/1" value="0" leadInLength="0/1"  interpolater="leadin-linr"  />
             <InterpolatingParam id="168" interp="linr"  time="-9999999/1" value="0" leadInLength="0/1"  interpolater="leadin-linr"  />
             <InterpolatingParam id="169" interp="linr"  time="-9999999/1" value="0" leadInLength="0/1"  interpolater="leadin-linr"  />
            </VectorParam>
            <VectorParam id="170"  name="shear">
             <InterpolatingParam id="171" interp="linr"  time="-9999999/1" value="0" leadInLength="0/1"  interpolater="leadin-linr"  />
             <InterpolatingParam id="172" interp="linr"  time="-9999999/1" value="0" leadInLength="0/1"  interpolater="leadin-linr"  />
             <InterpolatingParam id="173" interp="linr"  time="-9999999/1" value="0" leadInLength="0/1"  interpolater="leadin-linr"  />
            </VectorParam>
            <VectorParam id="174"  name="scale">
             <InterpolatingParam id="175" interp="linr"  time="-9999999/1" value="0.93695014662756593" leadInLength="0/1"  interpolater="leadin-linr"  />
             <InterpolatingParam id="176" interp="linr"  time="-9999999/1" value="0.93695014662756593" leadInLength="0/1"  interpolater="leadin-linr"  />
             <InterpolatingParam id="177" interp="linr"  time="-9999999/1" value="1" leadInLength="0/1"  interpolater="leadin-linr"  />
            </VectorParam>
            <VectorParam id="178"  name="anchor">
             <InterpolatingParam id="179" interp="linr"  time="0/1" value="0" leadInLength="0/1"  />
             <InterpolatingParam id="180" interp="linr"  time="0/1" value="0" leadInLength="0/1"  />
             <InterpolatingParam id="181" interp="linr"  time="0/1" value="0" leadInLength="0/1"  />
            </VectorParam>
           </Transformer>
           <Parameters>
            <VectorParam id="182"  name="sourceCrop">
             <InterpolatingParam id="183" interp="linr"  time="0/1" value="0" leadInLength="0/1"  />
             <InterpolatingParam id="184" interp="linr"  time="0/1" value="0" leadInLength="0/1"  />
             <InterpolatingParam id="185" interp="linr"  time="0/1" value="0" leadInLength="0/1"  />
             <InterpolatingParam id="186" interp="linr"  time="0/1" value="0" leadInLength="0/1"  />
            </VectorParam>
            <VectorParam id="187"  name="geometryCrop">
             <InterpolatingParam id="188" interp="linr"  time="-9999999/1" value="0" leadInLength="0/1"  interpolater="leadin-linr"  />
             <InterpolatingParam id="189" interp="linr"  time="-9999999/1" value="0" leadInLength="0/1"  interpolater="leadin-linr"  />
             <InterpolatingParam id="190" interp="linr"  time="-9999999/1" value="0" leadInLength="0/1"  interpolater="leadin-linr"  />
             <InterpolatingParam id="191" interp="linr"  time="-9999999/1" value="0" leadInLength="0/1"  interpolater="leadin-linr"  />
            </VectorParam>
            <InterpolatingParam id="192" interp="linr"  time="-9999999/1" value="1" leadInLength="0/1"  interpolater="leadin-linr"  name="opacity"/>
            <InterpolatingParam id="193" interp="linr"  time="0/1" value="1" leadInLength="0/1"  name="cursorOpacity"/>
            <InterpolatingParam id="194" interp="linr"  time="0/1" value="1" leadInLength="0/1"  name="cursorScale"/>
           </Parameters>
           <Effects>
            <GenericEffect id="195" name = "CursorBaseEffectName" >
             <Parameters>
             <InterpolatingParam id="196" interp="linr"  time="-9999999/1" value="1" leadInLength="0/1"   name="cursorSize"/>
             <InterpolatingParam id="197" interp="linr"  time="-9999999/1" value="0" leadInLength="0/1"   name="highlightBlurRadius"/>
             <InterpolatingParam id="198" interp="linr"  time="-9999999/1" value="0" leadInLength="0/1"   name="highlightColorBlue"/>
             <InterpolatingParam id="199" interp="linr"  time="-9999999/1" value="255" leadInLength="0/1"   name="highlightColorGreen"/>
             <InterpolatingParam id="200" interp="linr"  time="-9999999/1" value="255" leadInLength="0/1"   name="highlightColorRed"/>
             <InterpolatingParam id="201" interp="linr"  time="-9999999/1" value="5" leadInLength="0/1"   name="highlightFeatherSize"/>
             <InterpolatingParam id="202" interp="linr"  time="-9999999/1" value="2" leadInLength="0/1"   name="highlightMagnification"/>
             <InterpolatingParam id="203" interp="linr"  time="-9999999/1" value="1" leadInLength="0/1"   name="highlightOpacity"/>
             <InterpolatingParam id="204" interp="linr"  time="-9999999/1" value="45" leadInLength="0/1"   name="highlightSize"/>
             <Parameter id="205"   name="highlightType">
              <Keyframes>
              <Keyframe id="206"  time="-9999999/1" value="0" leadInLength="0/1"  />
              </Keyframes>
             </Parameter>
             <InterpolatingParam id="207" interp="linr"  time="-9999999/1" value="0" leadInLength="0/1"   name="leftClickColorBlue"/>
             <InterpolatingParam id="208" interp="linr"  time="-9999999/1" value="0" leadInLength="0/1"   name="leftClickColorGreen"/>
             <InterpolatingParam id="209" interp="linr"  time="-9999999/1" value="255" leadInLength="0/1"   name="leftClickColorRed"/>
             <InterpolatingParam id="210" interp="linr"  time="-9999999/1" value="0.80000000000000004" leadInLength="0/1"   name="leftClickDuration"/>
             <InterpolatingParam id="211" interp="linr"  time="-9999999/1" value="20" leadInLength="0/1"   name="leftClickSize"/>
             <Parameter id="212"   name="leftClickSoundFilename">
              <Keyframes>
              <Keyframe id="213"  time="-9999999/1" value="" leadInLength="0/1"  />
              </Keyframes>
             </Parameter>
             <InterpolatingParam id="214" interp="linr"  time="-9999999/1" value="1" leadInLength="0/1"   name="leftClickSoundVolume"/>
             <Parameter id="215"   name="leftClickType">
              <Keyframes>
              <Keyframe id="216"  time="-9999999/1" value="0" leadInLength="0/1"  />
              </Keyframes>
             </Parameter>
             <InterpolatingParam id="217" interp="linr"  time="-9999999/1" value="1" leadInLength="0/1"   name="opacity"/>
             <InterpolatingParam id="218" interp="linr"  time="-9999999/1" value="255" leadInLength="0/1"   name="rightClickColorBlue"/>
             <InterpolatingParam id="219" interp="linr"  time="-9999999/1" value="0" leadInLength="0/1"   name="rightClickColorGreen"/>
             <InterpolatingParam id="220" interp="linr"  time="-9999999/1" value="0" leadInLength="0/1"   name="rightClickColorRed"/>
             <InterpolatingParam id="221" interp="linr"  time="-9999999/1" value="0.80000000000000004" leadInLength="0/1"   name="rightClickDuration"/>
             <InterpolatingParam id="222" interp="linr"  time="-9999999/1" value="20" leadInLength="0/1"   name="rightClickSize"/>
             <Parameter id="223"   name="rightClickSoundFilename">
              <Keyframes>
              <Keyframe id="224"  time="-9999999/1" value="" leadInLength="0/1"  />
              </Keyframes>
             </Parameter>
             <InterpolatingParam id="225" interp="linr"  time="-9999999/1" value="1" leadInLength="0/1"   name="rightClickSoundVolume"/>
             <Parameter id="226"   name="rightClickType">
              <Keyframes>
              <Keyframe id="227"  time="-9999999/1" value="0" leadInLength="0/1"  />
              </Keyframes>
             </Parameter>
             </Parameters>
             <MetaData>
              <entry key="effectIndex" val="0"/>
             </MetaData>
            </GenericEffect>
           </Effects>
           <Attributes>
            <Attribute id="228" value="" name="ident"/>
           </Attributes>
           <ExtraData>
            <Entry key="ZoomPanBin">
             <ZoomPanBin id="229"  >
              <ZoomPanKeyframes>
               <ZoomPanKeyframe id="230" timeRangeEnd="-9999999/1" timeRangeDuration="0/1" interpolaterName="leadin-linr"  />
              </ZoomPanKeyframes>
             </ZoomPanBin>
            </Entry>
            <Entry key="CursorEffectBin">
             <CursorEffectBin id="231"  >
              <CursorEffectKeyframes>
               <CursorEffectKeyframe id="232" timeRangeEnd="-9999999/1" timeRangeDuration="0/1" interpolaterName=""  />
              </CursorEffectKeyframes>
             </CursorEffectBin>
            </Entry>
           </ExtraData>
          </ScreenVMFile>
          <MetaData>
           <entry key="AutoAppliedSmartFocus" val="False"/>
           <entry key="WinSubProjectDisplayName" val=""/>
          </MetaData>
         </UnifiedMedia>
         <UnifiedMedia id="233"  >
          <AMFile id="234" start="4652" duration="3510" scalar="1/1" mediaStart="0/1" mediaDuration="3510/1" trackNumber="1" src="5" channelNumber="0,1" >
           <Parameters>
            <InterpolatingParam id="235" interp="linr"  time="0/1" value="1" leadInLength="0/1"  name="volume"/>
            <Parameter id="236"  name="captions"/>
           </Parameters>
           <Attributes>
            <Attribute id="237" value="" name="ident"/>
            <Attribute id="238" value="44100" name="sampleRate"/>
            <Attribute id="239" value="16" name="bitDepth"/>
            <Attribute id="240" value="1" name="gain"/>
            <Attribute id="241" value="0" name="mixToMono"/>
           </Attributes>
          </AMFile>
          <ScreenVMFile id="242" start="4652" duration="3510" scalar="1/1" mediaStart="0/1" mediaDuration="3510/1" trackNumber="0" src="5" >
           <Transformer>
            <VectorParam id="243"  name="translation">
             <InterpolatingParam id="244" interp="linr"  time="-9999999/1" value="0" leadInLength="0/1"  />
             <InterpolatingParam id="245" interp="linr"  time="-9999999/1" value="0" leadInLength="0/1"  />
             <InterpolatingParam id="246" interp="linr"  time="-9999999/1" value="0" leadInLength="0/1"  />
            </VectorParam>
            <VectorParam id="247"  name="rotation">
             <InterpolatingParam id="248" interp="linr"  time="-9999999/1" value="0" leadInLength="0/1"  />
             <InterpolatingParam id="249" interp="linr"  time="-9999999/1" value="0" leadInLength="0/1"  />
             <InterpolatingParam id="250" interp="linr"  time="-9999999/1" value="0" leadInLength="0/1"  />
            </VectorParam>
            <VectorParam id="251"  name="shear">
             <InterpolatingParam id="252" interp="linr"  time="-9999999/1" value="0" leadInLength="0/1"  />
             <InterpolatingParam id="253" interp="linr"  time="-9999999/1" value="0" leadInLength="0/1"  />
             <InterpolatingParam id="254" interp="linr"  time="-9999999/1" value="0" leadInLength="0/1"  />
            </VectorParam>
            <VectorParam id="255"  name="scale">
             <InterpolatingParam id="256" interp="linr"  time="-9999999/1" value="0.98901098901098905" leadInLength="0/1"  />
             <InterpolatingParam id="257" interp="linr"  time="-9999999/1" value="0.98901098901098905" leadInLength="0/1"  />
             <InterpolatingParam id="258" interp="linr"  time="-9999999/1" value="1" leadInLength="0/1"  />
            </VectorParam>
            <VectorParam id="259"  name="anchor">
             <InterpolatingParam id="260" interp="linr"  time="0/1" value="0" leadInLength="0/1"  />
             <InterpolatingParam id="261" interp="linr"  time="0/1" value="0" leadInLength="0/1"  />
             <InterpolatingParam id="262" interp="linr"  time="0/1" value="0" leadInLength="0/1"  />
            </VectorParam>
           </Transformer>
           <Parameters>
            <VectorParam id="263"  name="sourceCrop">
             <InterpolatingParam id="264" interp="linr"  time="0/1" value="0" leadInLength="0/1"  />
             <InterpolatingParam id="265" interp="linr"  time="0/1" value="0" leadInLength="0/1"  />
             <InterpolatingParam id="266" interp="linr"  time="0/1" value="0" leadInLength="0/1"  />
             <InterpolatingParam id="267" interp="linr"  time="0/1" value="0" leadInLength="0/1"  />
            </VectorParam>
            <VectorParam id="268"  name="geometryCrop">
             <InterpolatingParam id="269" interp="linr"  time="-9999999/1" value="0" leadInLength="0/1"  />
             <InterpolatingParam id="270" interp="linr"  time="-9999999/1" value="0" leadInLength="0/1"  />
             <InterpolatingParam id="271" interp="linr"  time="-9999999/1" value="0" leadInLength="0/1"  />
             <InterpolatingParam id="272" interp="linr"  time="-9999999/1" value="0" leadInLength="0/1"  />
            </VectorParam>
            <InterpolatingParam id="273" interp="linr"  time="-9999999/1" value="1" leadInLength="0/1"  name="opacity"/>
            <InterpolatingParam id="274" interp="linr"  time="0/1" value="1" leadInLength="0/1"  name="cursorOpacity"/>
            <InterpolatingParam id="275" interp="linr"  time="0/1" value="1" leadInLength="0/1"  name="cursorScale"/>
           </Parameters>
           <Effects>
            <GenericEffect id="276" name = "CursorBaseEffectName" >
             <Parameters>
             <InterpolatingParam id="277" interp="linr"  time="-9999999/1" value="1" leadInLength="0/1"   name="cursorSize"/>
             <InterpolatingParam id="278" interp="linr"  time="-9999999/1" value="0" leadInLength="0/1"   name="highlightBlurRadius"/>
             <InterpolatingParam id="279" interp="linr"  time="-9999999/1" value="0" leadInLength="0/1"   name="highlightColorBlue"/>
             <InterpolatingParam id="280" interp="linr"  time="-9999999/1" value="255" leadInLength="0/1"   name="highlightColorGreen"/>
             <InterpolatingParam id="281" interp="linr"  time="-9999999/1" value="255" leadInLength="0/1"   name="highlightColorRed"/>
             <InterpolatingParam id="282" interp="linr"  time="-9999999/1" value="5" leadInLength="0/1"   name="highlightFeatherSize"/>
             <InterpolatingParam id="283" interp="linr"  time="-9999999/1" value="2" leadInLength="0/1"   name="highlightMagnification"/>
             <InterpolatingParam id="284" interp="linr"  time="-9999999/1" value="1" leadInLength="0/1"   name="highlightOpacity"/>
             <InterpolatingParam id="285" interp="linr"  time="-9999999/1" value="45" leadInLength="0/1"   name="highlightSize"/>
             <Parameter id="286"   name="highlightType">
              <Keyframes>
              <Keyframe id="287"  time="-9999999/1" value="0" leadInLength="0/1"  />
              </Keyframes>
             </Parameter>
             <InterpolatingParam id="288" interp="linr"  time="-9999999/1" value="0" leadInLength="0/1"   name="leftClickColorBlue"/>
             <InterpolatingParam id="289" interp="linr"  time="-9999999/1" value="0" leadInLength="0/1"   name="leftClickColorGreen"/>
             <InterpolatingParam id="290" interp="linr"  time="-9999999/1" value="255" leadInLength="0/1"   name="leftClickColorRed"/>
             <InterpolatingParam id="291" interp="linr"  time="-9999999/1" value="0.80000000000000004" leadInLength="0/1"   name="leftClickDuration"/>
             <InterpolatingParam id="292" interp="linr"  time="-9999999/1" value="20" leadInLength="0/1"   name="leftClickSize"/>
             <Parameter id="293"   name="leftClickSoundFilename">
              <Keyframes>
              <Keyframe id="294"  time="-9999999/1" value="" leadInLength="0/1"  />
              </Keyframes>
             </Parameter>
             <InterpolatingParam id="295" interp="linr"  time="-9999999/1" value="1" leadInLength="0/1"   name="leftClickSoundVolume"/>
             <Parameter id="296"   name="leftClickType">
              <Keyframes>
              <Keyframe id="297"  time="-9999999/1" value="0" leadInLength="0/1"  />
              </Keyframes>
             </Parameter>
             <InterpolatingParam id="298" interp="linr"  time="-9999999/1" value="1" leadInLength="0/1"   name="opacity"/>
             <InterpolatingParam id="299" interp="linr"  time="-9999999/1" value="255" leadInLength="0/1"   name="rightClickColorBlue"/>
             <InterpolatingParam id="300" interp="linr"  time="-9999999/1" value="0" leadInLength="0/1"   name="rightClickColorGreen"/>
             <InterpolatingParam id="301" interp="linr"  time="-9999999/1" value="0" leadInLength="0/1"   name="rightClickColorRed"/>
             <InterpolatingParam id="302" interp="linr"  time="-9999999/1" value="0.80000000000000004" leadInLength="0/1"   name="rightClickDuration"/>
             <InterpolatingParam id="303" interp="linr"  time="-9999999/1" value="20" leadInLength="0/1"   name="rightClickSize"/>
             <Parameter id="304"   name="rightClickSoundFilename">
              <Keyframes>
              <Keyframe id="305"  time="-9999999/1" value="" leadInLength="0/1"  />
              </Keyframes>
             </Parameter>
             <InterpolatingParam id="306" interp="linr"  time="-9999999/1" value="1" leadInLength="0/1"   name="rightClickSoundVolume"/>
             <Parameter id="307"   name="rightClickType">
              <Keyframes>
              <Keyframe id="308"  time="-9999999/1" value="0" leadInLength="0/1"  />
              </Keyframes>
             </Parameter>
             </Parameters>
             <MetaData>
              <entry key="effectIndex" val="0"/>
             </MetaData>
            </GenericEffect>
           </Effects>
           <Attributes>
            <Attribute id="309" value="" name="ident"/>
           </Attributes>
           <ExtraData>
            <Entry key="ZoomPanBin">
             <ZoomPanBin id="310"  >
              <ZoomPanKeyframes>
               <ZoomPanKeyframe id="311" timeRangeEnd="-9999999/1" timeRangeDuration="0/1" interpolaterName="linr"  />
              </ZoomPanKeyframes>
             </ZoomPanBin>
            </Entry>
            <Entry key="CursorEffectBin">
             <CursorEffectBin id="312"  >
              <CursorEffectKeyframes>
               <CursorEffectKeyframe id="313" timeRangeEnd="-9999999/1" timeRangeDuration="0/1" interpolaterName=""  />
              </CursorEffectKeyframes>
             </CursorEffectBin>
            </Entry>
           </ExtraData>
          </ScreenVMFile>
          <MetaData>
           <entry key="AutoAppliedSmartFocus" val="False"/>
           <entry key="WinSubProjectDisplayName" val=""/>
          </MetaData>
         </UnifiedMedia>
         <UnifiedMedia id="314"  >
          <AMFile id="315" start="8162" duration="2124" scalar="1/1" mediaStart="0/1" mediaDuration="2124/1" trackNumber="1" src="6" channelNumber="0,1" >
           <Parameters>
            <InterpolatingParam id="316" interp="linr"  time="0/1" value="1" leadInLength="0/1"  name="volume"/>
            <Parameter id="317"  name="captions"/>
           </Parameters>
           <Attributes>
            <Attribute id="318" value="" name="ident"/>
            <Attribute id="319" value="44100" name="sampleRate"/>
            <Attribute id="320" value="16" name="bitDepth"/>
            <Attribute id="321" value="1" name="gain"/>
            <Attribute id="322" value="0" name="mixToMono"/>
           </Attributes>
          </AMFile>
          <ScreenVMFile id="323" start="8162" duration="2124" scalar="1/1" mediaStart="0/1" mediaDuration="2124/1" trackNumber="0" src="6" >
           <Transformer>
            <VectorParam id="324"  name="translation">
             <InterpolatingParam id="325" interp="linr"  time="-9999999/1" value="0" leadInLength="0/1"  />
             <InterpolatingParam id="326" interp="linr"  time="-9999999/1" value="0" leadInLength="0/1"  />
             <InterpolatingParam id="327" interp="linr"  time="-9999999/1" value="0" leadInLength="0/1"  />
            </VectorParam>
            <VectorParam id="328"  name="rotation">
             <InterpolatingParam id="329" interp="linr"  time="-9999999/1" value="0" leadInLength="0/1"  />
             <InterpolatingParam id="330" interp="linr"  time="-9999999/1" value="0" leadInLength="0/1"  />
             <InterpolatingParam id="331" interp="linr"  time="-9999999/1" value="0" leadInLength="0/1"  />
            </VectorParam>
            <VectorParam id="332"  name="shear">
             <InterpolatingParam id="333" interp="linr"  time="-9999999/1" value="0" leadInLength="0/1"  />
             <InterpolatingParam id="334" interp="linr"  time="-9999999/1" value="0" leadInLength="0/1"  />
             <InterpolatingParam id="335" interp="linr"  time="-9999999/1" value="0" leadInLength="0/1"  />
            </VectorParam>
            <VectorParam id="336"  name="scale">
             <InterpolatingParam id="337" interp="linr"  time="-9999999/1" value="0.98901098901098905" leadInLength="0/1"  />
             <InterpolatingParam id="338" interp="linr"  time="-9999999/1" value="0.98901098901098905" leadInLength="0/1"  />
             <InterpolatingParam id="339" interp="linr"  time="-9999999/1" value="1" leadInLength="0/1"  />
            </VectorParam>
            <VectorParam id="340"  name="anchor">
             <InterpolatingParam id="341" interp="linr"  time="0/1" value="0" leadInLength="0/1"  />
             <InterpolatingParam id="342" interp="linr"  time="0/1" value="0" leadInLength="0/1"  />
             <InterpolatingParam id="343" interp="linr"  time="0/1" value="0" leadInLength="0/1"  />
            </VectorParam>
           </Transformer>
           <Parameters>
            <VectorParam id="344"  name="sourceCrop">
             <InterpolatingParam id="345" interp="linr"  time="0/1" value="0" leadInLength="0/1"  />
             <InterpolatingParam id="346" interp="linr"  time="0/1" value="0" leadInLength="0/1"  />
             <InterpolatingParam id="347" interp="linr"  time="0/1" value="0" leadInLength="0/1"  />
             <InterpolatingParam id="348" interp="linr"  time="0/1" value="0" leadInLength="0/1"  />
            </VectorParam>
            <VectorParam id="349"  name="geometryCrop">
             <InterpolatingParam id="350" interp="linr"  time="-9999999/1" value="0" leadInLength="0/1"  />
             <InterpolatingParam id="351" interp="linr"  time="-9999999/1" value="0" leadInLength="0/1"  />
             <InterpolatingParam id="352" interp="linr"  time="-9999999/1" value="0" leadInLength="0/1"  />
             <InterpolatingParam id="353" interp="linr"  time="-9999999/1" value="0" leadInLength="0/1"  />
            </VectorParam>
            <InterpolatingParam id="354" interp="linr"  time="-9999999/1" value="1" leadInLength="0/1"  name="opacity"/>
            <InterpolatingParam id="355" interp="linr"  time="0/1" value="1" leadInLength="0/1"  name="cursorOpacity"/>
            <InterpolatingParam id="356" interp="linr"  time="0/1" value="1" leadInLength="0/1"  name="cursorScale"/>
           </Parameters>
           <Effects>
            <GenericEffect id="357" name = "CursorBaseEffectName" >
             <Parameters>
             <InterpolatingParam id="358" interp="linr"  time="-9999999/1" value="1" leadInLength="0/1"   name="cursorSize"/>
             <InterpolatingParam id="359" interp="linr"  time="-9999999/1" value="0" leadInLength="0/1"   name="highlightBlurRadius"/>
             <InterpolatingParam id="360" interp="linr"  time="-9999999/1" value="0" leadInLength="0/1"   name="highlightColorBlue"/>
             <InterpolatingParam id="361" interp="linr"  time="-9999999/1" value="255" leadInLength="0/1"   name="highlightColorGreen"/>
             <InterpolatingParam id="362" interp="linr"  time="-9999999/1" value="255" leadInLength="0/1"   name="highlightColorRed"/>
             <InterpolatingParam id="363" interp="linr"  time="-9999999/1" value="5" leadInLength="0/1"   name="highlightFeatherSize"/>
             <InterpolatingParam id="364" interp="linr"  time="-9999999/1" value="2" leadInLength="0/1"   name="highlightMagnification"/>
             <InterpolatingParam id="365" interp="linr"  time="-9999999/1" value="1" leadInLength="0/1"   name="highlightOpacity"/>
             <InterpolatingParam id="366" interp="linr"  time="-9999999/1" value="45" leadInLength="0/1"   name="highlightSize"/>
             <Parameter id="367"   name="highlightType">
              <Keyframes>
              <Keyframe id="368"  time="-9999999/1" value="0" leadInLength="0/1"  />
              </Keyframes>
             </Parameter>
             <InterpolatingParam id="369" interp="linr"  time="-9999999/1" value="0" leadInLength="0/1"   name="leftClickColorBlue"/>
             <InterpolatingParam id="370" interp="linr"  time="-9999999/1" value="0" leadInLength="0/1"   name="leftClickColorGreen"/>
             <InterpolatingParam id="371" interp="linr"  time="-9999999/1" value="255" leadInLength="0/1"   name="leftClickColorRed"/>
             <InterpolatingParam id="372" interp="linr"  time="-9999999/1" value="0.80000000000000004" leadInLength="0/1"   name="leftClickDuration"/>
             <InterpolatingParam id="373" interp="linr"  time="-9999999/1" value="20" leadInLength="0/1"   name="leftClickSize"/>
             <Parameter id="374"   name="leftClickSoundFilename">
              <Keyframes>
              <Keyframe id="375"  time="-9999999/1" value="" leadInLength="0/1"  />
              </Keyframes>
             </Parameter>
             <InterpolatingParam id="376" interp="linr"  time="-9999999/1" value="1" leadInLength="0/1"   name="leftClickSoundVolume"/>
             <Parameter id="377"   name="leftClickType">
              <Keyframes>
              <Keyframe id="378"  time="-9999999/1" value="0" leadInLength="0/1"  />
              </Keyframes>
             </Parameter>
             <InterpolatingParam id="379" interp="linr"  time="-9999999/1" value="1" leadInLength="0/1"   name="opacity"/>
             <InterpolatingParam id="380" interp="linr"  time="-9999999/1" value="255" leadInLength="0/1"   name="rightClickColorBlue"/>
             <InterpolatingParam id="381" interp="linr"  time="-9999999/1" value="0" leadInLength="0/1"   name="rightClickColorGreen"/>
             <InterpolatingParam id="382" interp="linr"  time="-9999999/1" value="0" leadInLength="0/1"   name="rightClickColorRed"/>
             <InterpolatingParam id="383" interp="linr"  time="-9999999/1" value="0.80000000000000004" leadInLength="0/1"   name="rightClickDuration"/>
             <InterpolatingParam id="384" interp="linr"  time="-9999999/1" value="20" leadInLength="0/1"   name="rightClickSize"/>
             <Parameter id="385"   name="rightClickSoundFilename">
              <Keyframes>
              <Keyframe id="386"  time="-9999999/1" value="" leadInLength="0/1"  />
              </Keyframes>
             </Parameter>
             <InterpolatingParam id="387" interp="linr"  time="-9999999/1" value="1" leadInLength="0/1"   name="rightClickSoundVolume"/>
             <Parameter id="388"   name="rightClickType">
              <Keyframes>
              <Keyframe id="389"  time="-9999999/1" value="0" leadInLength="0/1"  />
              </Keyframes>
             </Parameter>
             </Parameters>
             <MetaData>
              <entry key="effectIndex" val="0"/>
             </MetaData>
            </GenericEffect>
           </Effects>
           <Attributes>
            <Attribute id="390" value="" name="ident"/>
           </Attributes>
           <ExtraData>
            <Entry key="ZoomPanBin">
             <ZoomPanBin id="391"  >
              <ZoomPanKeyframes>
               <ZoomPanKeyframe id="392" timeRangeEnd="-9999999/1" timeRangeDuration="0/1" interpolaterName="linr"  />
              </ZoomPanKeyframes>
             </ZoomPanBin>
            </Entry>
            <Entry key="CursorEffectBin">
             <CursorEffectBin id="393"  >
              <CursorEffectKeyframes>
               <CursorEffectKeyframe id="394" timeRangeEnd="-9999999/1" timeRangeDuration="0/1" interpolaterName=""  />
              </CursorEffectKeyframes>
             </CursorEffectBin>
            </Entry>
           </ExtraData>
          </ScreenVMFile>
          <MetaData>
           <entry key="AutoAppliedSmartFocus" val="False"/>
           <entry key="WinSubProjectDisplayName" val=""/>
          </MetaData>
         </UnifiedMedia>
         <UnifiedMedia id="395"  >
          <AMFile id="396" start="10286" duration="2281" scalar="1/1" mediaStart="0/1" mediaDuration="2281/1" trackNumber="1" src="7" channelNumber="0,1" >
           <Parameters>
            <InterpolatingParam id="397" interp="linr"  time="0/1" value="1" leadInLength="0/1"  name="volume"/>
            <Parameter id="398"  name="captions"/>
           </Parameters>
           <Attributes>
            <Attribute id="399" value="" name="ident"/>
            <Attribute id="400" value="44100" name="sampleRate"/>
            <Attribute id="401" value="16" name="bitDepth"/>
            <Attribute id="402" value="1" name="gain"/>
            <Attribute id="403" value="0" name="mixToMono"/>
           </Attributes>
          </AMFile>
          <ScreenVMFile id="404" start="10286" duration="2281" scalar="1/1" mediaStart="0/1" mediaDuration="2281/1" trackNumber="0" src="7" >
           <Transformer>
            <VectorParam id="405"  name="translation">
             <InterpolatingParam id="406" interp="linr"  time="-9999999/1" value="0" leadInLength="0/1"  />
             <InterpolatingParam id="407" interp="linr"  time="-9999999/1" value="0" leadInLength="0/1"  />
             <InterpolatingParam id="408" interp="linr"  time="-9999999/1" value="0" leadInLength="0/1"  />
            </VectorParam>
            <VectorParam id="409"  name="rotation">
             <InterpolatingParam id="410" interp="linr"  time="-9999999/1" value="0" leadInLength="0/1"  />
             <InterpolatingParam id="411" interp="linr"  time="-9999999/1" value="0" leadInLength="0/1"  />
             <InterpolatingParam id="412" interp="linr"  time="-9999999/1" value="0" leadInLength="0/1"  />
            </VectorParam>
            <VectorParam id="413"  name="shear">
             <InterpolatingParam id="414" interp="linr"  time="-9999999/1" value="0" leadInLength="0/1"  />
             <InterpolatingParam id="415" interp="linr"  time="-9999999/1" value="0" leadInLength="0/1"  />
             <InterpolatingParam id="416" interp="linr"  time="-9999999/1" value="0" leadInLength="0/1"  />
            </VectorParam>
            <VectorParam id="417"  name="scale">
             <InterpolatingParam id="418" interp="linr"  time="-9999999/1" value="0.98901098901098905" leadInLength="0/1"  />
             <InterpolatingParam id="419" interp="linr"  time="-9999999/1" value="0.98901098901098905" leadInLength="0/1"  />
             <InterpolatingParam id="420" interp="linr"  time="-9999999/1" value="1" leadInLength="0/1"  />
            </VectorParam>
            <VectorParam id="421"  name="anchor">
             <InterpolatingParam id="422" interp="linr"  time="0/1" value="0" leadInLength="0/1"  />
             <InterpolatingParam id="423" interp="linr"  time="0/1" value="0" leadInLength="0/1"  />
             <InterpolatingParam id="424" interp="linr"  time="0/1" value="0" leadInLength="0/1"  />
            </VectorParam>
           </Transformer>
           <Parameters>
            <VectorParam id="425"  name="sourceCrop">
             <InterpolatingParam id="426" interp="linr"  time="0/1" value="0" leadInLength="0/1"  />
             <InterpolatingParam id="427" interp="linr"  time="0/1" value="0" leadInLength="0/1"  />
             <InterpolatingParam id="428" interp="linr"  time="0/1" value="0" leadInLength="0/1"  />
             <InterpolatingParam id="429" interp="linr"  time="0/1" value="0" leadInLength="0/1"  />
            </VectorParam>
            <VectorParam id="430"  name="geometryCrop">
             <InterpolatingParam id="431" interp="linr"  time="-9999999/1" value="0" leadInLength="0/1"  />
             <InterpolatingParam id="432" interp="linr"  time="-9999999/1" value="0" leadInLength="0/1"  />
             <InterpolatingParam id="433" interp="linr"  time="-9999999/1" value="0" leadInLength="0/1"  />
             <InterpolatingParam id="434" interp="linr"  time="-9999999/1" value="0" leadInLength="0/1"  />
            </VectorParam>
            <InterpolatingParam id="435" interp="linr"  time="-9999999/1" value="1" leadInLength="0/1"  name="opacity"/>
            <InterpolatingParam id="436" interp="linr"  time="0/1" value="1" leadInLength="0/1"  name="cursorOpacity"/>
            <InterpolatingParam id="437" interp="linr"  time="0/1" value="1" leadInLength="0/1"  name="cursorScale"/>
           </Parameters>
           <Effects>
            <GenericEffect id="438" name = "CursorBaseEffectName" >
             <Parameters>
             <InterpolatingParam id="439" interp="linr"  time="-9999999/1" value="1" leadInLength="0/1"   name="cursorSize"/>
             <InterpolatingParam id="440" interp="linr"  time="-9999999/1" value="0" leadInLength="0/1"   name="highlightBlurRadius"/>
             <InterpolatingParam id="441" interp="linr"  time="-9999999/1" value="0" leadInLength="0/1"   name="highlightColorBlue"/>
             <InterpolatingParam id="442" interp="linr"  time="-9999999/1" value="255" leadInLength="0/1"   name="highlightColorGreen"/>
             <InterpolatingParam id="443" interp="linr"  time="-9999999/1" value="255" leadInLength="0/1"   name="highlightColorRed"/>
             <InterpolatingParam id="444" interp="linr"  time="-9999999/1" value="5" leadInLength="0/1"   name="highlightFeatherSize"/>
             <InterpolatingParam id="445" interp="linr"  time="-9999999/1" value="2" leadInLength="0/1"   name="highlightMagnification"/>
             <InterpolatingParam id="446" interp="linr"  time="-9999999/1" value="1" leadInLength="0/1"   name="highlightOpacity"/>
             <InterpolatingParam id="447" interp="linr"  time="-9999999/1" value="45" leadInLength="0/1"   name="highlightSize"/>
             <Parameter id="448"   name="highlightType">
              <Keyframes>
              <Keyframe id="449"  time="-9999999/1" value="0" leadInLength="0/1"  />
              </Keyframes>
             </Parameter>
             <InterpolatingParam id="450" interp="linr"  time="-9999999/1" value="0" leadInLength="0/1"   name="leftClickColorBlue"/>
             <InterpolatingParam id="451" interp="linr"  time="-9999999/1" value="0" leadInLength="0/1"   name="leftClickColorGreen"/>
             <InterpolatingParam id="452" interp="linr"  time="-9999999/1" value="255" leadInLength="0/1"   name="leftClickColorRed"/>
             <InterpolatingParam id="453" interp="linr"  time="-9999999/1" value="0.80000000000000004" leadInLength="0/1"   name="leftClickDuration"/>
             <InterpolatingParam id="454" interp="linr"  time="-9999999/1" value="20" leadInLength="0/1"   name="leftClickSize"/>
             <Parameter id="455"   name="leftClickSoundFilename">
              <Keyframes>
              <Keyframe id="456"  time="-9999999/1" value="" leadInLength="0/1"  />
              </Keyframes>
             </Parameter>
             <InterpolatingParam id="457" interp="linr"  time="-9999999/1" value="1" leadInLength="0/1"   name="leftClickSoundVolume"/>
             <Parameter id="458"   name="leftClickType">
              <Keyframes>
              <Keyframe id="459"  time="-9999999/1" value="0" leadInLength="0/1"  />
              </Keyframes>
             </Parameter>
             <InterpolatingParam id="460" interp="linr"  time="-9999999/1" value="1" leadInLength="0/1"   name="opacity"/>
             <InterpolatingParam id="461" interp="linr"  time="-9999999/1" value="255" leadInLength="0/1"   name="rightClickColorBlue"/>
             <InterpolatingParam id="462" interp="linr"  time="-9999999/1" value="0" leadInLength="0/1"   name="rightClickColorGreen"/>
             <InterpolatingParam id="463" interp="linr"  time="-9999999/1" value="0" leadInLength="0/1"   name="rightClickColorRed"/>
             <InterpolatingParam id="464" interp="linr"  time="-9999999/1" value="0.80000000000000004" leadInLength="0/1"   name="rightClickDuration"/>
             <InterpolatingParam id="465" interp="linr"  time="-9999999/1" value="20" leadInLength="0/1"   name="rightClickSize"/>
             <Parameter id="466"   name="rightClickSoundFilename">
              <Keyframes>
              <Keyframe id="467"  time="-9999999/1" value="" leadInLength="0/1"  />
              </Keyframes>
             </Parameter>
             <InterpolatingParam id="468" interp="linr"  time="-9999999/1" value="1" leadInLength="0/1"   name="rightClickSoundVolume"/>
             <Parameter id="469"   name="rightClickType">
              <Keyframes>
              <Keyframe id="470"  time="-9999999/1" value="0" leadInLength="0/1"  />
              </Keyframes>
             </Parameter>
             </Parameters>
             <MetaData>
              <entry key="effectIndex" val="0"/>
             </MetaData>
            </GenericEffect>
           </Effects>
           <Attributes>
            <Attribute id="471" value="" name="ident"/>
           </Attributes>
           <ExtraData>
            <Entry key="ZoomPanBin">
             <ZoomPanBin id="472"  >
              <ZoomPanKeyframes>
               <ZoomPanKeyframe id="473" timeRangeEnd="-9999999/1" timeRangeDuration="0/1" interpolaterName="linr"  />
              </ZoomPanKeyframes>
             </ZoomPanBin>
            </Entry>
            <Entry key="CursorEffectBin">
             <CursorEffectBin id="474"  >
              <CursorEffectKeyframes>
               <CursorEffectKeyframe id="475" timeRangeEnd="-9999999/1" timeRangeDuration="0/1" interpolaterName=""  />
              </CursorEffectKeyframes>
             </CursorEffectBin>
            </Entry>
           </ExtraData>
          </ScreenVMFile>
          <MetaData>
           <entry key="AutoAppliedSmartFocus" val="False"/>
           <entry key="WinSubProjectDisplayName" val=""/>
          </MetaData>
         </UnifiedMedia>
         <UnifiedMedia id="476"  >
          <AMFile id="477" start="12567" duration="1832" scalar="1/1" mediaStart="0/1" mediaDuration="1832/1" trackNumber="1" src="8" channelNumber="0,1" >
           <Parameters>
            <InterpolatingParam id="478" interp="linr"  time="0/1" value="1" leadInLength="0/1"  name="volume"/>
            <Parameter id="479"  name="captions"/>
           </Parameters>
           <Attributes>
            <Attribute id="480" value="" name="ident"/>
            <Attribute id="481" value="44100" name="sampleRate"/>
            <Attribute id="482" value="16" name="bitDepth"/>
            <Attribute id="483" value="1" name="gain"/>
            <Attribute id="484" value="0" name="mixToMono"/>
           </Attributes>
          </AMFile>
          <ScreenVMFile id="485" start="12567" duration="1832" scalar="1/1" mediaStart="0/1" mediaDuration="1832/1" trackNumber="0" src="8" >
           <Transformer>
            <VectorParam id="486"  name="translation">
             <InterpolatingParam id="487" interp="linr"  time="-9999999/1" value="0" leadInLength="0/1"  />
             <InterpolatingParam id="488" interp="linr"  time="-9999999/1" value="0" leadInLength="0/1"  />
             <InterpolatingParam id="489" interp="linr"  time="-9999999/1" value="0" leadInLength="0/1"  />
            </VectorParam>
            <VectorParam id="490"  name="rotation">
             <InterpolatingParam id="491" interp="linr"  time="-9999999/1" value="0" leadInLength="0/1"  />
             <InterpolatingParam id="492" interp="linr"  time="-9999999/1" value="0" leadInLength="0/1"  />
             <InterpolatingParam id="493" interp="linr"  time="-9999999/1" value="0" leadInLength="0/1"  />
            </VectorParam>
            <VectorParam id="494"  name="shear">
             <InterpolatingParam id="495" interp="linr"  time="-9999999/1" value="0" leadInLength="0/1"  />
             <InterpolatingParam id="496" interp="linr"  time="-9999999/1" value="0" leadInLength="0/1"  />
             <InterpolatingParam id="497" interp="linr"  time="-9999999/1" value="0" leadInLength="0/1"  />
            </VectorParam>
            <VectorParam id="498"  name="scale">
             <InterpolatingParam id="499" interp="linr"  time="-9999999/1" value="0.98901098901098905" leadInLength="0/1"  />
             <InterpolatingParam id="500" interp="linr"  time="-9999999/1" value="0.98901098901098905" leadInLength="0/1"  />
             <InterpolatingParam id="501" interp="linr"  time="-9999999/1" value="1" leadInLength="0/1"  />
            </VectorParam>
            <VectorParam id="502"  name="anchor">
             <InterpolatingParam id="503" interp="linr"  time="0/1" value="0" leadInLength="0/1"  />
             <InterpolatingParam id="504" interp="linr"  time="0/1" value="0" leadInLength="0/1"  />
             <InterpolatingParam id="505" interp="linr"  time="0/1" value="0" leadInLength="0/1"  />
            </VectorParam>
           </Transformer>
           <Parameters>
            <VectorParam id="506"  name="sourceCrop">
             <InterpolatingParam id="507" interp="linr"  time="0/1" value="0" leadInLength="0/1"  />
             <InterpolatingParam id="508" interp="linr"  time="0/1" value="0" leadInLength="0/1"  />
             <InterpolatingParam id="509" interp="linr"  time="0/1" value="0" leadInLength="0/1"  />
             <InterpolatingParam id="510" interp="linr"  time="0/1" value="0" leadInLength="0/1"  />
            </VectorParam>
            <VectorParam id="511"  name="geometryCrop">
             <InterpolatingParam id="512" interp="linr"  time="-9999999/1" value="0" leadInLength="0/1"  />
             <InterpolatingParam id="513" interp="linr"  time="-9999999/1" value="0" leadInLength="0/1"  />
             <InterpolatingParam id="514" interp="linr"  time="-9999999/1" value="0" leadInLength="0/1"  />
             <InterpolatingParam id="515" interp="linr"  time="-9999999/1" value="0" leadInLength="0/1"  />
            </VectorParam>
            <InterpolatingParam id="516" interp="linr"  time="-9999999/1" value="1" leadInLength="0/1"  name="opacity"/>
            <InterpolatingParam id="517" interp="linr"  time="0/1" value="1" leadInLength="0/1"  name="cursorOpacity"/>
            <InterpolatingParam id="518" interp="linr"  time="0/1" value="1" leadInLength="0/1"  name="cursorScale"/>
           </Parameters>
           <Effects>
            <GenericEffect id="519" name = "CursorBaseEffectName" >
             <Parameters>
             <InterpolatingParam id="520" interp="linr"  time="-9999999/1" value="1" leadInLength="0/1"   name="cursorSize"/>
             <InterpolatingParam id="521" interp="linr"  time="-9999999/1" value="0" leadInLength="0/1"   name="highlightBlurRadius"/>
             <InterpolatingParam id="522" interp="linr"  time="-9999999/1" value="0" leadInLength="0/1"   name="highlightColorBlue"/>
             <InterpolatingParam id="523" interp="linr"  time="-9999999/1" value="255" leadInLength="0/1"   name="highlightColorGreen"/>
             <InterpolatingParam id="524" interp="linr"  time="-9999999/1" value="255" leadInLength="0/1"   name="highlightColorRed"/>
             <InterpolatingParam id="525" interp="linr"  time="-9999999/1" value="5" leadInLength="0/1"   name="highlightFeatherSize"/>
             <InterpolatingParam id="526" interp="linr"  time="-9999999/1" value="2" leadInLength="0/1"   name="highlightMagnification"/>
             <InterpolatingParam id="527" interp="linr"  time="-9999999/1" value="1" leadInLength="0/1"   name="highlightOpacity"/>
             <InterpolatingParam id="528" interp="linr"  time="-9999999/1" value="45" leadInLength="0/1"   name="highlightSize"/>
             <Parameter id="529"   name="highlightType">
              <Keyframes>
              <Keyframe id="530"  time="-9999999/1" value="0" leadInLength="0/1"  />
              </Keyframes>
             </Parameter>
             <InterpolatingParam id="531" interp="linr"  time="-9999999/1" value="0" leadInLength="0/1"   name="leftClickColorBlue"/>
             <InterpolatingParam id="532" interp="linr"  time="-9999999/1" value="0" leadInLength="0/1"   name="leftClickColorGreen"/>
             <InterpolatingParam id="533" interp="linr"  time="-9999999/1" value="255" leadInLength="0/1"   name="leftClickColorRed"/>
             <InterpolatingParam id="534" interp="linr"  time="-9999999/1" value="0.80000000000000004" leadInLength="0/1"   name="leftClickDuration"/>
             <InterpolatingParam id="535" interp="linr"  time="-9999999/1" value="20" leadInLength="0/1"   name="leftClickSize"/>
             <Parameter id="536"   name="leftClickSoundFilename">
              <Keyframes>
              <Keyframe id="537"  time="-9999999/1" value="" leadInLength="0/1"  />
              </Keyframes>
             </Parameter>
             <InterpolatingParam id="538" interp="linr"  time="-9999999/1" value="1" leadInLength="0/1"   name="leftClickSoundVolume"/>
             <Parameter id="539"   name="leftClickType">
              <Keyframes>
              <Keyframe id="540"  time="-9999999/1" value="0" leadInLength="0/1"  />
              </Keyframes>
             </Parameter>
             <InterpolatingParam id="541" interp="linr"  time="-9999999/1" value="1" leadInLength="0/1"   name="opacity"/>
             <InterpolatingParam id="542" interp="linr"  time="-9999999/1" value="255" leadInLength="0/1"   name="rightClickColorBlue"/>
             <InterpolatingParam id="543" interp="linr"  time="-9999999/1" value="0" leadInLength="0/1"   name="rightClickColorGreen"/>
             <InterpolatingParam id="544" interp="linr"  time="-9999999/1" value="0" leadInLength="0/1"   name="rightClickColorRed"/>
             <InterpolatingParam id="545" interp="linr"  time="-9999999/1" value="0.80000000000000004" leadInLength="0/1"   name="rightClickDuration"/>
             <InterpolatingParam id="546" interp="linr"  time="-9999999/1" value="20" leadInLength="0/1"   name="rightClickSize"/>
             <Parameter id="547"   name="rightClickSoundFilename">
              <Keyframes>
              <Keyframe id="548"  time="-9999999/1" value="" leadInLength="0/1"  />
              </Keyframes>
             </Parameter>
             <InterpolatingParam id="549" interp="linr"  time="-9999999/1" value="1" leadInLength="0/1"   name="rightClickSoundVolume"/>
             <Parameter id="550"   name="rightClickType">
              <Keyframes>
              <Keyframe id="551"  time="-9999999/1" value="0" leadInLength="0/1"  />
              </Keyframes>
             </Parameter>
             </Parameters>
             <MetaData>
              <entry key="effectIndex" val="0"/>
             </MetaData>
            </GenericEffect>
           </Effects>
           <Attributes>
            <Attribute id="552" value="" name="ident"/>
           </Attributes>
           <ExtraData>
            <Entry key="ZoomPanBin">
             <ZoomPanBin id="553"  >
              <ZoomPanKeyframes>
               <ZoomPanKeyframe id="554" timeRangeEnd="-9999999/1" timeRangeDuration="0/1" interpolaterName="linr"  />
              </ZoomPanKeyframes>
             </ZoomPanBin>
            </Entry>
            <Entry key="CursorEffectBin">
             <CursorEffectBin id="555"  >
              <CursorEffectKeyframes>
               <CursorEffectKeyframe id="556" timeRangeEnd="-9999999/1" timeRangeDuration="0/1" interpolaterName=""  />
              </CursorEffectKeyframes>
             </CursorEffectBin>
            </Entry>
           </ExtraData>
          </ScreenVMFile>
          <MetaData>
           <entry key="AutoAppliedSmartFocus" val="False"/>
           <entry key="WinSubProjectDisplayName" val=""/>
          </MetaData>
         </UnifiedMedia>
         <UnifiedMedia id="557"  >
          <AMFile id="558" start="14399" duration="2201" scalar="1/1" mediaStart="0/1" mediaDuration="2201/1" trackNumber="1" src="9" channelNumber="0,1" >
           <Parameters>
            <InterpolatingParam id="559" interp="linr"  time="0/1" value="1" leadInLength="0/1"  name="volume"/>
            <Parameter id="560"  name="captions"/>
           </Parameters>
           <Attributes>
            <Attribute id="561" value="" name="ident"/>
            <Attribute id="562" value="44100" name="sampleRate"/>
            <Attribute id="563" value="16" name="bitDepth"/>
            <Attribute id="564" value="1" name="gain"/>
            <Attribute id="565" value="0" name="mixToMono"/>
           </Attributes>
          </AMFile>
          <ScreenVMFile id="566" start="14399" duration="2201" scalar="1/1" mediaStart="0/1" mediaDuration="2201/1" trackNumber="0" src="9" >
           <Transformer>
            <VectorParam id="567"  name="translation">
             <InterpolatingParam id="568" interp="linr"  time="-9999999/1" value="0" leadInLength="0/1"  />
             <InterpolatingParam id="569" interp="linr"  time="-9999999/1" value="0" leadInLength="0/1"  />
             <InterpolatingParam id="570" interp="linr"  time="-9999999/1" value="0" leadInLength="0/1"  />
            </VectorParam>
            <VectorParam id="571"  name="rotation">
             <InterpolatingParam id="572" interp="linr"  time="-9999999/1" value="0" leadInLength="0/1"  />
             <InterpolatingParam id="573" interp="linr"  time="-9999999/1" value="0" leadInLength="0/1"  />
             <InterpolatingParam id="574" interp="linr"  time="-9999999/1" value="0" leadInLength="0/1"  />
            </VectorParam>
            <VectorParam id="575"  name="shear">
             <InterpolatingParam id="576" interp="linr"  time="-9999999/1" value="0" leadInLength="0/1"  />
             <InterpolatingParam id="577" interp="linr"  time="-9999999/1" value="0" leadInLength="0/1"  />
             <InterpolatingParam id="578" interp="linr"  time="-9999999/1" value="0" leadInLength="0/1"  />
            </VectorParam>
            <VectorParam id="579"  name="scale">
             <InterpolatingParam id="580" interp="linr"  time="-9999999/1" value="0.98901098901098905" leadInLength="0/1"  />
             <InterpolatingParam id="581" interp="linr"  time="-9999999/1" value="0.98901098901098905" leadInLength="0/1"  />
             <InterpolatingParam id="582" interp="linr"  time="-9999999/1" value="1" leadInLength="0/1"  />
            </VectorParam>
            <VectorParam id="583"  name="anchor">
             <InterpolatingParam id="584" interp="linr"  time="0/1" value="0" leadInLength="0/1"  />
             <InterpolatingParam id="585" interp="linr"  time="0/1" value="0" leadInLength="0/1"  />
             <InterpolatingParam id="586" interp="linr"  time="0/1" value="0" leadInLength="0/1"  />
            </VectorParam>
           </Transformer>
           <Parameters>
            <VectorParam id="587"  name="sourceCrop">
             <InterpolatingParam id="588" interp="linr"  time="0/1" value="0" leadInLength="0/1"  />
             <InterpolatingParam id="589" interp="linr"  time="0/1" value="0" leadInLength="0/1"  />
             <InterpolatingParam id="590" interp="linr"  time="0/1" value="0" leadInLength="0/1"  />
             <InterpolatingParam id="591" interp="linr"  time="0/1" value="0" leadInLength="0/1"  />
            </VectorParam>
            <VectorParam id="592"  name="geometryCrop">
             <InterpolatingParam id="593" interp="linr"  time="-9999999/1" value="0" leadInLength="0/1"  />
             <InterpolatingParam id="594" interp="linr"  time="-9999999/1" value="0" leadInLength="0/1"  />
             <InterpolatingParam id="595" interp="linr"  time="-9999999/1" value="0" leadInLength="0/1"  />
             <InterpolatingParam id="596" interp="linr"  time="-9999999/1" value="0" leadInLength="0/1"  />
            </VectorParam>
            <InterpolatingParam id="597" interp="linr"  time="-9999999/1" value="1" leadInLength="0/1"  name="opacity"/>
            <InterpolatingParam id="598" interp="linr"  time="0/1" value="1" leadInLength="0/1"  name="cursorOpacity"/>
            <InterpolatingParam id="599" interp="linr"  time="0/1" value="1" leadInLength="0/1"  name="cursorScale"/>
           </Parameters>
           <Effects>
            <GenericEffect id="600" name = "CursorBaseEffectName" >
             <Parameters>
             <InterpolatingParam id="601" interp="linr"  time="-9999999/1" value="1" leadInLength="0/1"   name="cursorSize"/>
             <InterpolatingParam id="602" interp="linr"  time="-9999999/1" value="0" leadInLength="0/1"   name="highlightBlurRadius"/>
             <InterpolatingParam id="603" interp="linr"  time="-9999999/1" value="0" leadInLength="0/1"   name="highlightColorBlue"/>
             <InterpolatingParam id="604" interp="linr"  time="-9999999/1" value="255" leadInLength="0/1"   name="highlightColorGreen"/>
             <InterpolatingParam id="605" interp="linr"  time="-9999999/1" value="255" leadInLength="0/1"   name="highlightColorRed"/>
             <InterpolatingParam id="606" interp="linr"  time="-9999999/1" value="5" leadInLength="0/1"   name="highlightFeatherSize"/>
             <InterpolatingParam id="607" interp="linr"  time="-9999999/1" value="2" leadInLength="0/1"   name="highlightMagnification"/>
             <InterpolatingParam id="608" interp="linr"  time="-9999999/1" value="1" leadInLength="0/1"   name="highlightOpacity"/>
             <InterpolatingParam id="609" interp="linr"  time="-9999999/1" value="45" leadInLength="0/1"   name="highlightSize"/>
             <Parameter id="610"   name="highlightType">
              <Keyframes>
              <Keyframe id="611"  time="-9999999/1" value="0" leadInLength="0/1"  />
              </Keyframes>
             </Parameter>
             <InterpolatingParam id="612" interp="linr"  time="-9999999/1" value="0" leadInLength="0/1"   name="leftClickColorBlue"/>
             <InterpolatingParam id="613" interp="linr"  time="-9999999/1" value="0" leadInLength="0/1"   name="leftClickColorGreen"/>
             <InterpolatingParam id="614" interp="linr"  time="-9999999/1" value="255" leadInLength="0/1"   name="leftClickColorRed"/>
             <InterpolatingParam id="615" interp="linr"  time="-9999999/1" value="0.80000000000000004" leadInLength="0/1"   name="leftClickDuration"/>
             <InterpolatingParam id="616" interp="linr"  time="-9999999/1" value="20" leadInLength="0/1"   name="leftClickSize"/>
             <Parameter id="617"   name="leftClickSoundFilename">
              <Keyframes>
              <Keyframe id="618"  time="-9999999/1" value="" leadInLength="0/1"  />
              </Keyframes>
             </Parameter>
             <InterpolatingParam id="619" interp="linr"  time="-9999999/1" value="1" leadInLength="0/1"   name="leftClickSoundVolume"/>
             <Parameter id="620"   name="leftClickType">
              <Keyframes>
              <Keyframe id="621"  time="-9999999/1" value="0" leadInLength="0/1"  />
              </Keyframes>
             </Parameter>
             <InterpolatingParam id="622" interp="linr"  time="-9999999/1" value="1" leadInLength="0/1"   name="opacity"/>
             <InterpolatingParam id="623" interp="linr"  time="-9999999/1" value="255" leadInLength="0/1"   name="rightClickColorBlue"/>
             <InterpolatingParam id="624" interp="linr"  time="-9999999/1" value="0" leadInLength="0/1"   name="rightClickColorGreen"/>
             <InterpolatingParam id="625" interp="linr"  time="-9999999/1" value="0" leadInLength="0/1"   name="rightClickColorRed"/>
             <InterpolatingParam id="626" interp="linr"  time="-9999999/1" value="0.80000000000000004" leadInLength="0/1"   name="rightClickDuration"/>
             <InterpolatingParam id="627" interp="linr"  time="-9999999/1" value="20" leadInLength="0/1"   name="rightClickSize"/>
             <Parameter id="628"   name="rightClickSoundFilename">
              <Keyframes>
              <Keyframe id="629"  time="-9999999/1" value="" leadInLength="0/1"  />
              </Keyframes>
             </Parameter>
             <InterpolatingParam id="630" interp="linr"  time="-9999999/1" value="1" leadInLength="0/1"   name="rightClickSoundVolume"/>
             <Parameter id="631"   name="rightClickType">
              <Keyframes>
              <Keyframe id="632"  time="-9999999/1" value="0" leadInLength="0/1"  />
              </Keyframes>
             </Parameter>
             </Parameters>
             <MetaData>
              <entry key="effectIndex" val="0"/>
             </MetaData>
            </GenericEffect>
           </Effects>
           <Attributes>
            <Attribute id="633" value="" name="ident"/>
           </Attributes>
           <ExtraData>
            <Entry key="ZoomPanBin">
             <ZoomPanBin id="634"  >
              <ZoomPanKeyframes>
               <ZoomPanKeyframe id="635" timeRangeEnd="-9999999/1" timeRangeDuration="0/1" interpolaterName="linr"  />
              </ZoomPanKeyframes>
             </ZoomPanBin>
            </Entry>
            <Entry key="CursorEffectBin">
             <CursorEffectBin id="636"  >
              <CursorEffectKeyframes>
               <CursorEffectKeyframe id="637" timeRangeEnd="-9999999/1" timeRangeDuration="0/1" interpolaterName=""  />
              </CursorEffectKeyframes>
             </CursorEffectBin>
            </Entry>
           </ExtraData>
          </ScreenVMFile>
          <MetaData>
           <entry key="AutoAppliedSmartFocus" val="False"/>
           <entry key="WinSubProjectDisplayName" val=""/>
          </MetaData>
         </UnifiedMedia>
         <UnifiedMedia id="638"  >
          <AMFile id="639" start="16600" duration="775" scalar="1/1" mediaStart="0/1" mediaDuration="775/1" trackNumber="1" src="10" channelNumber="0,1" >
           <Parameters>
            <InterpolatingParam id="640" interp="linr"  time="0/1" value="1" leadInLength="0/1"  name="volume"/>
            <Parameter id="641"  name="captions"/>
           </Parameters>
           <Attributes>
            <Attribute id="642" value="" name="ident"/>
            <Attribute id="643" value="44100" name="sampleRate"/>
            <Attribute id="644" value="16" name="bitDepth"/>
            <Attribute id="645" value="1" name="gain"/>
            <Attribute id="646" value="0" name="mixToMono"/>
           </Attributes>
          </AMFile>
          <ScreenVMFile id="647" start="16600" duration="775" scalar="1/1" mediaStart="0/1" mediaDuration="775/1" trackNumber="0" src="10" >
           <Transformer>
            <VectorParam id="648"  name="translation">
             <InterpolatingParam id="649" interp="linr"  time="-9999999/1" value="0" leadInLength="0/1"  />
             <InterpolatingParam id="650" interp="linr"  time="-9999999/1" value="0" leadInLength="0/1"  />
             <InterpolatingParam id="651" interp="linr"  time="-9999999/1" value="0" leadInLength="0/1"  />
            </VectorParam>
            <VectorParam id="652"  name="rotation">
             <InterpolatingParam id="653" interp="linr"  time="-9999999/1" value="0" leadInLength="0/1"  />
             <InterpolatingParam id="654" interp="linr"  time="-9999999/1" value="0" leadInLength="0/1"  />
             <InterpolatingParam id="655" interp="linr"  time="-9999999/1" value="0" leadInLength="0/1"  />
            </VectorParam>
            <VectorParam id="656"  name="shear">
             <InterpolatingParam id="657" interp="linr"  time="-9999999/1" value="0" leadInLength="0/1"  />
             <InterpolatingParam id="658" interp="linr"  time="-9999999/1" value="0" leadInLength="0/1"  />
             <InterpolatingParam id="659" interp="linr"  time="-9999999/1" value="0" leadInLength="0/1"  />
            </VectorParam>
            <VectorParam id="660"  name="scale">
             <InterpolatingParam id="661" interp="linr"  time="-9999999/1" value="0.98901098901098905" leadInLength="0/1"  />
             <InterpolatingParam id="662" interp="linr"  time="-9999999/1" value="0.98901098901098905" leadInLength="0/1"  />
             <InterpolatingParam id="663" interp="linr"  time="-9999999/1" value="1" leadInLength="0/1"  />
            </VectorParam>
            <VectorParam id="664"  name="anchor">
             <InterpolatingParam id="665" interp="linr"  time="0/1" value="0" leadInLength="0/1"  />
             <InterpolatingParam id="666" interp="linr"  time="0/1" value="0" leadInLength="0/1"  />
             <InterpolatingParam id="667" interp="linr"  time="0/1" value="0" leadInLength="0/1"  />
            </VectorParam>
           </Transformer>
           <Parameters>
            <VectorParam id="668"  name="sourceCrop">
             <InterpolatingParam id="669" interp="linr"  time="0/1" value="0" leadInLength="0/1"  />
             <InterpolatingParam id="670" interp="linr"  time="0/1" value="0" leadInLength="0/1"  />
             <InterpolatingParam id="671" interp="linr"  time="0/1" value="0" leadInLength="0/1"  />
             <InterpolatingParam id="672" interp="linr"  time="0/1" value="0" leadInLength="0/1"  />
            </VectorParam>
            <VectorParam id="673"  name="geometryCrop">
             <InterpolatingParam id="674" interp="linr"  time="-9999999/1" value="0" leadInLength="0/1"  />
             <InterpolatingParam id="675" interp="linr"  time="-9999999/1" value="0" leadInLength="0/1"  />
             <InterpolatingParam id="676" interp="linr"  time="-9999999/1" value="0" leadInLength="0/1"  />
             <InterpolatingParam id="677" interp="linr"  time="-9999999/1" value="0" leadInLength="0/1"  />
            </VectorParam>
            <InterpolatingParam id="678" interp="linr"  time="-9999999/1" value="1" leadInLength="0/1"  name="opacity"/>
            <InterpolatingParam id="679" interp="linr"  time="0/1" value="1" leadInLength="0/1"  name="cursorOpacity"/>
            <InterpolatingParam id="680" interp="linr"  time="0/1" value="1" leadInLength="0/1"  name="cursorScale"/>
           </Parameters>
           <Effects>
            <GenericEffect id="681" name = "CursorBaseEffectName" >
             <Parameters>
             <InterpolatingParam id="682" interp="linr"  time="-9999999/1" value="1" leadInLength="0/1"   name="cursorSize"/>
             <InterpolatingParam id="683" interp="linr"  time="-9999999/1" value="0" leadInLength="0/1"   name="highlightBlurRadius"/>
             <InterpolatingParam id="684" interp="linr"  time="-9999999/1" value="0" leadInLength="0/1"   name="highlightColorBlue"/>
             <InterpolatingParam id="685" interp="linr"  time="-9999999/1" value="255" leadInLength="0/1"   name="highlightColorGreen"/>
             <InterpolatingParam id="686" interp="linr"  time="-9999999/1" value="255" leadInLength="0/1"   name="highlightColorRed"/>
             <InterpolatingParam id="687" interp="linr"  time="-9999999/1" value="5" leadInLength="0/1"   name="highlightFeatherSize"/>
             <InterpolatingParam id="688" interp="linr"  time="-9999999/1" value="2" leadInLength="0/1"   name="highlightMagnification"/>
             <InterpolatingParam id="689" interp="linr"  time="-9999999/1" value="1" leadInLength="0/1"   name="highlightOpacity"/>
             <InterpolatingParam id="690" interp="linr"  time="-9999999/1" value="45" leadInLength="0/1"   name="highlightSize"/>
             <Parameter id="691"   name="highlightType">
              <Keyframes>
              <Keyframe id="692"  time="-9999999/1" value="0" leadInLength="0/1"  />
              </Keyframes>
             </Parameter>
             <InterpolatingParam id="693" interp="linr"  time="-9999999/1" value="0" leadInLength="0/1"   name="leftClickColorBlue"/>
             <InterpolatingParam id="694" interp="linr"  time="-9999999/1" value="0" leadInLength="0/1"   name="leftClickColorGreen"/>
             <InterpolatingParam id="695" interp="linr"  time="-9999999/1" value="255" leadInLength="0/1"   name="leftClickColorRed"/>
             <InterpolatingParam id="696" interp="linr"  time="-9999999/1" value="0.80000000000000004" leadInLength="0/1"   name="leftClickDuration"/>
             <InterpolatingParam id="697" interp="linr"  time="-9999999/1" value="20" leadInLength="0/1"   name="leftClickSize"/>
             <Parameter id="698"   name="leftClickSoundFilename">
              <Keyframes>
              <Keyframe id="699"  time="-9999999/1" value="" leadInLength="0/1"  />
              </Keyframes>
             </Parameter>
             <InterpolatingParam id="700" interp="linr"  time="-9999999/1" value="1" leadInLength="0/1"   name="leftClickSoundVolume"/>
             <Parameter id="701"   name="leftClickType">
              <Keyframes>
              <Keyframe id="702"  time="-9999999/1" value="0" leadInLength="0/1"  />
              </Keyframes>
             </Parameter>
             <InterpolatingParam id="703" interp="linr"  time="-9999999/1" value="1" leadInLength="0/1"   name="opacity"/>
             <InterpolatingParam id="704" interp="linr"  time="-9999999/1" value="255" leadInLength="0/1"   name="rightClickColorBlue"/>
             <InterpolatingParam id="705" interp="linr"  time="-9999999/1" value="0" leadInLength="0/1"   name="rightClickColorGreen"/>
             <InterpolatingParam id="706" interp="linr"  time="-9999999/1" value="0" leadInLength="0/1"   name="rightClickColorRed"/>
             <InterpolatingParam id="707" interp="linr"  time="-9999999/1" value="0.80000000000000004" leadInLength="0/1"   name="rightClickDuration"/>
             <InterpolatingParam id="708" interp="linr"  time="-9999999/1" value="20" leadInLength="0/1"   name="rightClickSize"/>
             <Parameter id="709"   name="rightClickSoundFilename">
              <Keyframes>
              <Keyframe id="710"  time="-9999999/1" value="" leadInLength="0/1"  />
              </Keyframes>
             </Parameter>
             <InterpolatingParam id="711" interp="linr"  time="-9999999/1" value="1" leadInLength="0/1"   name="rightClickSoundVolume"/>
             <Parameter id="712"   name="rightClickType">
              <Keyframes>
              <Keyframe id="713"  time="-9999999/1" value="0" leadInLength="0/1"  />
              </Keyframes>
             </Parameter>
             </Parameters>
             <MetaData>
              <entry key="effectIndex" val="0"/>
             </MetaData>
            </GenericEffect>
           </Effects>
           <Attributes>
            <Attribute id="714" value="" name="ident"/>
           </Attributes>
           <ExtraData>
            <Entry key="ZoomPanBin">
             <ZoomPanBin id="715"  >
              <ZoomPanKeyframes>
               <ZoomPanKeyframe id="716" timeRangeEnd="-9999999/1" timeRangeDuration="0/1" interpolaterName="linr"  />
              </ZoomPanKeyframes>
             </ZoomPanBin>
            </Entry>
            <Entry key="CursorEffectBin">
             <CursorEffectBin id="717"  >
              <CursorEffectKeyframes>
               <CursorEffectKeyframe id="718" timeRangeEnd="-9999999/1" timeRangeDuration="0/1" interpolaterName=""  />
              </CursorEffectKeyframes>
             </CursorEffectBin>
            </Entry>
           </ExtraData>
          </ScreenVMFile>
          <MetaData>
           <entry key="AutoAppliedSmartFocus" val="False"/>
           <entry key="WinSubProjectDisplayName" val=""/>
          </MetaData>
         </UnifiedMedia>
         <UnifiedMedia id="719"  >
          <AMFile id="720" start="17375" duration="1481" scalar="1/1" mediaStart="0/1" mediaDuration="1481/1" trackNumber="1" src="11" channelNumber="0,1" >
           <Parameters>
            <InterpolatingParam id="721" interp="linr"  time="0/1" value="1" leadInLength="0/1"  name="volume"/>
            <Parameter id="722"  name="captions"/>
           </Parameters>
           <Attributes>
            <Attribute id="723" value="" name="ident"/>
            <Attribute id="724" value="44100" name="sampleRate"/>
            <Attribute id="725" value="16" name="bitDepth"/>
            <Attribute id="726" value="1" name="gain"/>
            <Attribute id="727" value="0" name="mixToMono"/>
           </Attributes>
          </AMFile>
          <ScreenVMFile id="728" start="17375" duration="1481" scalar="1/1" mediaStart="0/1" mediaDuration="1481/1" trackNumber="0" src="11" >
           <Transformer>
            <VectorParam id="729"  name="translation">
             <InterpolatingParam id="730" interp="linr"  time="-9999999/1" value="0" leadInLength="0/1"  />
             <InterpolatingParam id="731" interp="linr"  time="-9999999/1" value="0" leadInLength="0/1"  />
             <InterpolatingParam id="732" interp="linr"  time="-9999999/1" value="0" leadInLength="0/1"  />
            </VectorParam>
            <VectorParam id="733"  name="rotation">
             <InterpolatingParam id="734" interp="linr"  time="-9999999/1" value="0" leadInLength="0/1"  />
             <InterpolatingParam id="735" interp="linr"  time="-9999999/1" value="0" leadInLength="0/1"  />
             <InterpolatingParam id="736" interp="linr"  time="-9999999/1" value="0" leadInLength="0/1"  />
            </VectorParam>
            <VectorParam id="737"  name="shear">
             <InterpolatingParam id="738" interp="linr"  time="-9999999/1" value="0" leadInLength="0/1"  />
             <InterpolatingParam id="739" interp="linr"  time="-9999999/1" value="0" leadInLength="0/1"  />
             <InterpolatingParam id="740" interp="linr"  time="-9999999/1" value="0" leadInLength="0/1"  />
            </VectorParam>
            <VectorParam id="741"  name="scale">
             <InterpolatingParam id="742" interp="linr"  time="-9999999/1" value="0.98901098901098905" leadInLength="0/1"  />
             <InterpolatingParam id="743" interp="linr"  time="-9999999/1" value="0.98901098901098905" leadInLength="0/1"  />
             <InterpolatingParam id="744" interp="linr"  time="-9999999/1" value="1" leadInLength="0/1"  />
            </VectorParam>
            <VectorParam id="745"  name="anchor">
             <InterpolatingParam id="746" interp="linr"  time="0/1" value="0" leadInLength="0/1"  />
             <InterpolatingParam id="747" interp="linr"  time="0/1" value="0" leadInLength="0/1"  />
             <InterpolatingParam id="748" interp="linr"  time="0/1" value="0" leadInLength="0/1"  />
            </VectorParam>
           </Transformer>
           <Parameters>
            <VectorParam id="749"  name="sourceCrop">
             <InterpolatingParam id="750" interp="linr"  time="0/1" value="0" leadInLength="0/1"  />
             <InterpolatingParam id="751" interp="linr"  time="0/1" value="0" leadInLength="0/1"  />
             <InterpolatingParam id="752" interp="linr"  time="0/1" value="0" leadInLength="0/1"  />
             <InterpolatingParam id="753" interp="linr"  time="0/1" value="0" leadInLength="0/1"  />
            </VectorParam>
            <VectorParam id="754"  name="geometryCrop">
             <InterpolatingParam id="755" interp="linr"  time="-9999999/1" value="0" leadInLength="0/1"  />
             <InterpolatingParam id="756" interp="linr"  time="-9999999/1" value="0" leadInLength="0/1"  />
             <InterpolatingParam id="757" interp="linr"  time="-9999999/1" value="0" leadInLength="0/1"  />
             <InterpolatingParam id="758" interp="linr"  time="-9999999/1" value="0" leadInLength="0/1"  />
            </VectorParam>
            <InterpolatingParam id="759" interp="linr"  time="-9999999/1" value="1" leadInLength="0/1"  name="opacity"/>
            <InterpolatingParam id="760" interp="linr"  time="0/1" value="1" leadInLength="0/1"  name="cursorOpacity"/>
            <InterpolatingParam id="761" interp="linr"  time="0/1" value="1" leadInLength="0/1"  name="cursorScale"/>
           </Parameters>
           <Effects>
            <GenericEffect id="762" name = "CursorBaseEffectName" >
             <Parameters>
             <InterpolatingParam id="763" interp="linr"  time="-9999999/1" value="1" leadInLength="0/1"   name="cursorSize"/>
             <InterpolatingParam id="764" interp="linr"  time="-9999999/1" value="0" leadInLength="0/1"   name="highlightBlurRadius"/>
             <InterpolatingParam id="765" interp="linr"  time="-9999999/1" value="0" leadInLength="0/1"   name="highlightColorBlue"/>
             <InterpolatingParam id="766" interp="linr"  time="-9999999/1" value="255" leadInLength="0/1"   name="highlightColorGreen"/>
             <InterpolatingParam id="767" interp="linr"  time="-9999999/1" value="255" leadInLength="0/1"   name="highlightColorRed"/>
             <InterpolatingParam id="768" interp="linr"  time="-9999999/1" value="5" leadInLength="0/1"   name="highlightFeatherSize"/>
             <InterpolatingParam id="769" interp="linr"  time="-9999999/1" value="2" leadInLength="0/1"   name="highlightMagnification"/>
             <InterpolatingParam id="770" interp="linr"  time="-9999999/1" value="1" leadInLength="0/1"   name="highlightOpacity"/>
             <InterpolatingParam id="771" interp="linr"  time="-9999999/1" value="45" leadInLength="0/1"   name="highlightSize"/>
             <Parameter id="772"   name="highlightType">
              <Keyframes>
              <Keyframe id="773"  time="-9999999/1" value="0" leadInLength="0/1"  />
              </Keyframes>
             </Parameter>
             <InterpolatingParam id="774" interp="linr"  time="-9999999/1" value="0" leadInLength="0/1"   name="leftClickColorBlue"/>
             <InterpolatingParam id="775" interp="linr"  time="-9999999/1" value="0" leadInLength="0/1"   name="leftClickColorGreen"/>
             <InterpolatingParam id="776" interp="linr"  time="-9999999/1" value="255" leadInLength="0/1"   name="leftClickColorRed"/>
             <InterpolatingParam id="777" interp="linr"  time="-9999999/1" value="0.80000000000000004" leadInLength="0/1"   name="leftClickDuration"/>
             <InterpolatingParam id="778" interp="linr"  time="-9999999/1" value="20" leadInLength="0/1"   name="leftClickSize"/>
             <Parameter id="779"   name="leftClickSoundFilename">
              <Keyframes>
              <Keyframe id="780"  time="-9999999/1" value="" leadInLength="0/1"  />
              </Keyframes>
             </Parameter>
             <InterpolatingParam id="781" interp="linr"  time="-9999999/1" value="1" leadInLength="0/1"   name="leftClickSoundVolume"/>
             <Parameter id="782"   name="leftClickType">
              <Keyframes>
              <Keyframe id="783"  time="-9999999/1" value="0" leadInLength="0/1"  />
              </Keyframes>
             </Parameter>
             <InterpolatingParam id="784" interp="linr"  time="-9999999/1" value="1" leadInLength="0/1"   name="opacity"/>
             <InterpolatingParam id="785" interp="linr"  time="-9999999/1" value="255" leadInLength="0/1"   name="rightClickColorBlue"/>
             <InterpolatingParam id="786" interp="linr"  time="-9999999/1" value="0" leadInLength="0/1"   name="rightClickColorGreen"/>
             <InterpolatingParam id="787" interp="linr"  time="-9999999/1" value="0" leadInLength="0/1"   name="rightClickColorRed"/>
             <InterpolatingParam id="788" interp="linr"  time="-9999999/1" value="0.80000000000000004" leadInLength="0/1"   name="rightClickDuration"/>
             <InterpolatingParam id="789" interp="linr"  time="-9999999/1" value="20" leadInLength="0/1"   name="rightClickSize"/>
             <Parameter id="790"   name="rightClickSoundFilename">
              <Keyframes>
              <Keyframe id="791"  time="-9999999/1" value="" leadInLength="0/1"  />
              </Keyframes>
             </Parameter>
             <InterpolatingParam id="792" interp="linr"  time="-9999999/1" value="1" leadInLength="0/1"   name="rightClickSoundVolume"/>
             <Parameter id="793"   name="rightClickType">
              <Keyframes>
              <Keyframe id="794"  time="-9999999/1" value="0" leadInLength="0/1"  />
              </Keyframes>
             </Parameter>
             </Parameters>
             <MetaData>
              <entry key="effectIndex" val="0"/>
             </MetaData>
            </GenericEffect>
           </Effects>
           <Attributes>
            <Attribute id="795" value="" name="ident"/>
           </Attributes>
           <ExtraData>
            <Entry key="ZoomPanBin">
             <ZoomPanBin id="796"  >
              <ZoomPanKeyframes>
               <ZoomPanKeyframe id="797" timeRangeEnd="-9999999/1" timeRangeDuration="0/1" interpolaterName="linr"  />
              </ZoomPanKeyframes>
             </ZoomPanBin>
            </Entry>
            <Entry key="CursorEffectBin">
             <CursorEffectBin id="798"  >
              <CursorEffectKeyframes>
               <CursorEffectKeyframe id="799" timeRangeEnd="-9999999/1" timeRangeDuration="0/1" interpolaterName=""  />
              </CursorEffectKeyframes>
             </CursorEffectBin>
            </Entry>
           </ExtraData>
          </ScreenVMFile>
          <MetaData>
           <entry key="AutoAppliedSmartFocus" val="False"/>
           <entry key="WinSubProjectDisplayName" val=""/>
          </MetaData>
         </UnifiedMedia>
         <UnifiedMedia id="800"  >
          <AMFile id="801" start="18856" duration="1946" scalar="1/1" mediaStart="0/1" mediaDuration="1946/1" trackNumber="1" src="12" channelNumber="0,1" >
           <Parameters>
            <InterpolatingParam id="802" interp="linr"  time="0/1" value="1" leadInLength="0/1"  name="volume"/>
            <Parameter id="803"  name="captions"/>
           </Parameters>
           <Attributes>
            <Attribute id="804" value="" name="ident"/>
            <Attribute id="805" value="44100" name="sampleRate"/>
            <Attribute id="806" value="16" name="bitDepth"/>
            <Attribute id="807" value="1" name="gain"/>
            <Attribute id="808" value="0" name="mixToMono"/>
           </Attributes>
          </AMFile>
          <ScreenVMFile id="809" start="18856" duration="1946" scalar="1/1" mediaStart="0/1" mediaDuration="1946/1" trackNumber="0" src="12" >
           <Transformer>
            <VectorParam id="810"  name="translation">
             <InterpolatingParam id="811" interp="linr"  time="-9999999/1" value="0" leadInLength="0/1"  />
             <InterpolatingParam id="812" interp="linr"  time="-9999999/1" value="0" leadInLength="0/1"  />
             <InterpolatingParam id="813" interp="linr"  time="-9999999/1" value="0" leadInLength="0/1"  />
            </VectorParam>
            <VectorParam id="814"  name="rotation">
             <InterpolatingParam id="815" interp="linr"  time="-9999999/1" value="0" leadInLength="0/1"  />
             <InterpolatingParam id="816" interp="linr"  time="-9999999/1" value="0" leadInLength="0/1"  />
             <InterpolatingParam id="817" interp="linr"  time="-9999999/1" value="0" leadInLength="0/1"  />
            </VectorParam>
            <VectorParam id="818"  name="shear">
             <InterpolatingParam id="819" interp="linr"  time="-9999999/1" value="0" leadInLength="0/1"  />
             <InterpolatingParam id="820" interp="linr"  time="-9999999/1" value="0" leadInLength="0/1"  />
             <InterpolatingParam id="821" interp="linr"  time="-9999999/1" value="0" leadInLength="0/1"  />
            </VectorParam>
            <VectorParam id="822"  name="scale">
             <InterpolatingParam id="823" interp="linr"  time="-9999999/1" value="0.98901098901098905" leadInLength="0/1"  />
             <InterpolatingParam id="824" interp="linr"  time="-9999999/1" value="0.98901098901098905" leadInLength="0/1"  />
             <InterpolatingParam id="825" interp="linr"  time="-9999999/1" value="1" leadInLength="0/1"  />
            </VectorParam>
            <VectorParam id="826"  name="anchor">
             <InterpolatingParam id="827" interp="linr"  time="0/1" value="0" leadInLength="0/1"  />
             <InterpolatingParam id="828" interp="linr"  time="0/1" value="0" leadInLength="0/1"  />
             <InterpolatingParam id="829" interp="linr"  time="0/1" value="0" leadInLength="0/1"  />
            </VectorParam>
           </Transformer>
           <Parameters>
            <VectorParam id="830"  name="sourceCrop">
             <InterpolatingParam id="831" interp="linr"  time="0/1" value="0" leadInLength="0/1"  />
             <InterpolatingParam id="832" interp="linr"  time="0/1" value="0" leadInLength="0/1"  />
             <InterpolatingParam id="833" interp="linr"  time="0/1" value="0" leadInLength="0/1"  />
             <InterpolatingParam id="834" interp="linr"  time="0/1" value="0" leadInLength="0/1"  />
            </VectorParam>
            <VectorParam id="835"  name="geometryCrop">
             <InterpolatingParam id="836" interp="linr"  time="-9999999/1" value="0" leadInLength="0/1"  />
             <InterpolatingParam id="837" interp="linr"  time="-9999999/1" value="0" leadInLength="0/1"  />
             <InterpolatingParam id="838" interp="linr"  time="-9999999/1" value="0" leadInLength="0/1"  />
             <InterpolatingParam id="839" interp="linr"  time="-9999999/1" value="0" leadInLength="0/1"  />
            </VectorParam>
            <InterpolatingParam id="840" interp="linr"  time="-9999999/1" value="1" leadInLength="0/1"  name="opacity"/>
            <InterpolatingParam id="841" interp="linr"  time="0/1" value="1" leadInLength="0/1"  name="cursorOpacity"/>
            <InterpolatingParam id="842" interp="linr"  time="0/1" value="1" leadInLength="0/1"  name="cursorScale"/>
           </Parameters>
           <Effects>
            <GenericEffect id="843" name = "CursorBaseEffectName" >
             <Parameters>
             <InterpolatingParam id="844" interp="linr"  time="-9999999/1" value="1" leadInLength="0/1"   name="cursorSize"/>
             <InterpolatingParam id="845" interp="linr"  time="-9999999/1" value="0" leadInLength="0/1"   name="highlightBlurRadius"/>
             <InterpolatingParam id="846" interp="linr"  time="-9999999/1" value="0" leadInLength="0/1"   name="highlightColorBlue"/>
             <InterpolatingParam id="847" interp="linr"  time="-9999999/1" value="255" leadInLength="0/1"   name="highlightColorGreen"/>
             <InterpolatingParam id="848" interp="linr"  time="-9999999/1" value="255" leadInLength="0/1"   name="highlightColorRed"/>
             <InterpolatingParam id="849" interp="linr"  time="-9999999/1" value="5" leadInLength="0/1"   name="highlightFeatherSize"/>
             <InterpolatingParam id="850" interp="linr"  time="-9999999/1" value="2" leadInLength="0/1"   name="highlightMagnification"/>
             <InterpolatingParam id="851" interp="linr"  time="-9999999/1" value="1" leadInLength="0/1"   name="highlightOpacity"/>
             <InterpolatingParam id="852" interp="linr"  time="-9999999/1" value="45" leadInLength="0/1"   name="highlightSize"/>
             <Parameter id="853"   name="highlightType">
              <Keyframes>
              <Keyframe id="854"  time="-9999999/1" value="0" leadInLength="0/1"  />
              </Keyframes>
             </Parameter>
             <InterpolatingParam id="855" interp="linr"  time="-9999999/1" value="0" leadInLength="0/1"   name="leftClickColorBlue"/>
             <InterpolatingParam id="856" interp="linr"  time="-9999999/1" value="0" leadInLength="0/1"   name="leftClickColorGreen"/>
             <InterpolatingParam id="857" interp="linr"  time="-9999999/1" value="255" leadInLength="0/1"   name="leftClickColorRed"/>
             <InterpolatingParam id="858" interp="linr"  time="-9999999/1" value="0.80000000000000004" leadInLength="0/1"   name="leftClickDuration"/>
             <InterpolatingParam id="859" interp="linr"  time="-9999999/1" value="20" leadInLength="0/1"   name="leftClickSize"/>
             <Parameter id="860"   name="leftClickSoundFilename">
              <Keyframes>
              <Keyframe id="861"  time="-9999999/1" value="" leadInLength="0/1"  />
              </Keyframes>
             </Parameter>
             <InterpolatingParam id="862" interp="linr"  time="-9999999/1" value="1" leadInLength="0/1"   name="leftClickSoundVolume"/>
             <Parameter id="863"   name="leftClickType">
              <Keyframes>
              <Keyframe id="864"  time="-9999999/1" value="0" leadInLength="0/1"  />
              </Keyframes>
             </Parameter>
             <InterpolatingParam id="865" interp="linr"  time="-9999999/1" value="1" leadInLength="0/1"   name="opacity"/>
             <InterpolatingParam id="866" interp="linr"  time="-9999999/1" value="255" leadInLength="0/1"   name="rightClickColorBlue"/>
             <InterpolatingParam id="867" interp="linr"  time="-9999999/1" value="0" leadInLength="0/1"   name="rightClickColorGreen"/>
             <InterpolatingParam id="868" interp="linr"  time="-9999999/1" value="0" leadInLength="0/1"   name="rightClickColorRed"/>
             <InterpolatingParam id="869" interp="linr"  time="-9999999/1" value="0.80000000000000004" leadInLength="0/1"   name="rightClickDuration"/>
             <InterpolatingParam id="870" interp="linr"  time="-9999999/1" value="20" leadInLength="0/1"   name="rightClickSize"/>
             <Parameter id="871"   name="rightClickSoundFilename">
              <Keyframes>
              <Keyframe id="872"  time="-9999999/1" value="" leadInLength="0/1"  />
              </Keyframes>
             </Parameter>
             <InterpolatingParam id="873" interp="linr"  time="-9999999/1" value="1" leadInLength="0/1"   name="rightClickSoundVolume"/>
             <Parameter id="874"   name="rightClickType">
              <Keyframes>
              <Keyframe id="875"  time="-9999999/1" value="0" leadInLength="0/1"  />
              </Keyframes>
             </Parameter>
             </Parameters>
             <MetaData>
              <entry key="effectIndex" val="0"/>
             </MetaData>
            </GenericEffect>
           </Effects>
           <Attributes>
            <Attribute id="876" value="" name="ident"/>
           </Attributes>
           <ExtraData>
            <Entry key="ZoomPanBin">
             <ZoomPanBin id="877"  >
              <ZoomPanKeyframes>
               <ZoomPanKeyframe id="878" timeRangeEnd="-9999999/1" timeRangeDuration="0/1" interpolaterName="linr"  />
              </ZoomPanKeyframes>
             </ZoomPanBin>
            </Entry>
            <Entry key="CursorEffectBin">
             <CursorEffectBin id="879"  >
              <CursorEffectKeyframes>
               <CursorEffectKeyframe id="880" timeRangeEnd="-9999999/1" timeRangeDuration="0/1" interpolaterName=""  />
              </CursorEffectKeyframes>
             </CursorEffectBin>
            </Entry>
           </ExtraData>
          </ScreenVMFile>
          <MetaData>
           <entry key="AutoAppliedSmartFocus" val="False"/>
           <entry key="WinSubProjectDisplayName" val=""/>
          </MetaData>
         </UnifiedMedia>
         <UnifiedMedia id="881"  >
          <AMFile id="882" start="20802" duration="1121" scalar="1/1" mediaStart="0/1" mediaDuration="1121/1" trackNumber="1" src="13" channelNumber="0,1" >
           <Parameters>
            <InterpolatingParam id="883" interp="linr"  time="0/1" value="1" leadInLength="0/1"  name="volume"/>
            <Parameter id="884"  name="captions"/>
           </Parameters>
           <Attributes>
            <Attribute id="885" value="" name="ident"/>
            <Attribute id="886" value="44100" name="sampleRate"/>
            <Attribute id="887" value="16" name="bitDepth"/>
            <Attribute id="888" value="1" name="gain"/>
            <Attribute id="889" value="0" name="mixToMono"/>
           </Attributes>
          </AMFile>
          <ScreenVMFile id="890" start="20802" duration="1121" scalar="1/1" mediaStart="0/1" mediaDuration="1121/1" trackNumber="0" src="13" >
           <Transformer>
            <VectorParam id="891"  name="translation">
             <InterpolatingParam id="892" interp="linr"  time="-9999999/1" value="0" leadInLength="0/1"  />
             <InterpolatingParam id="893" interp="linr"  time="-9999999/1" value="0" leadInLength="0/1"  />
             <InterpolatingParam id="894" interp="linr"  time="-9999999/1" value="0" leadInLength="0/1"  />
            </VectorParam>
            <VectorParam id="895"  name="rotation">
             <InterpolatingParam id="896" interp="linr"  time="-9999999/1" value="0" leadInLength="0/1"  />
             <InterpolatingParam id="897" interp="linr"  time="-9999999/1" value="0" leadInLength="0/1"  />
             <InterpolatingParam id="898" interp="linr"  time="-9999999/1" value="0" leadInLength="0/1"  />
            </VectorParam>
            <VectorParam id="899"  name="shear">
             <InterpolatingParam id="900" interp="linr"  time="-9999999/1" value="0" leadInLength="0/1"  />
             <InterpolatingParam id="901" interp="linr"  time="-9999999/1" value="0" leadInLength="0/1"  />
             <InterpolatingParam id="902" interp="linr"  time="-9999999/1" value="0" leadInLength="0/1"  />
            </VectorParam>
            <VectorParam id="903"  name="scale">
             <InterpolatingParam id="904" interp="linr"  time="-9999999/1" value="0.98901098901098905" leadInLength="0/1"  />
             <InterpolatingParam id="905" interp="linr"  time="-9999999/1" value="0.98901098901098905" leadInLength="0/1"  />
             <InterpolatingParam id="906" interp="linr"  time="-9999999/1" value="1" leadInLength="0/1"  />
            </VectorParam>
            <VectorParam id="907"  name="anchor">
             <InterpolatingParam id="908" interp="linr"  time="0/1" value="0" leadInLength="0/1"  />
             <InterpolatingParam id="909" interp="linr"  time="0/1" value="0" leadInLength="0/1"  />
             <InterpolatingParam id="910" interp="linr"  time="0/1" value="0" leadInLength="0/1"  />
            </VectorParam>
           </Transformer>
           <Parameters>
            <VectorParam id="911"  name="sourceCrop">
             <InterpolatingParam id="912" interp="linr"  time="0/1" value="0" leadInLength="0/1"  />
             <InterpolatingParam id="913" interp="linr"  time="0/1" value="0" leadInLength="0/1"  />
             <InterpolatingParam id="914" interp="linr"  time="0/1" value="0" leadInLength="0/1"  />
             <InterpolatingParam id="915" interp="linr"  time="0/1" value="0" leadInLength="0/1"  />
            </VectorParam>
            <VectorParam id="916"  name="geometryCrop">
             <InterpolatingParam id="917" interp="linr"  time="-9999999/1" value="0" leadInLength="0/1"  />
             <InterpolatingParam id="918" interp="linr"  time="-9999999/1" value="0" leadInLength="0/1"  />
             <InterpolatingParam id="919" interp="linr"  time="-9999999/1" value="0" leadInLength="0/1"  />
             <InterpolatingParam id="920" interp="linr"  time="-9999999/1" value="0" leadInLength="0/1"  />
            </VectorParam>
            <InterpolatingParam id="921" interp="linr"  time="-9999999/1" value="1" leadInLength="0/1"  name="opacity"/>
            <InterpolatingParam id="922" interp="linr"  time="0/1" value="1" leadInLength="0/1"  name="cursorOpacity"/>
            <InterpolatingParam id="923" interp="linr"  time="0/1" value="1" leadInLength="0/1"  name="cursorScale"/>
           </Parameters>
           <Effects>
            <GenericEffect id="924" name = "CursorBaseEffectName" >
             <Parameters>
             <InterpolatingParam id="925" interp="linr"  time="-9999999/1" value="1" leadInLength="0/1"   name="cursorSize"/>
             <InterpolatingParam id="926" interp="linr"  time="-9999999/1" value="0" leadInLength="0/1"   name="highlightBlurRadius"/>
             <InterpolatingParam id="927" interp="linr"  time="-9999999/1" value="0" leadInLength="0/1"   name="highlightColorBlue"/>
             <InterpolatingParam id="928" interp="linr"  time="-9999999/1" value="255" leadInLength="0/1"   name="highlightColorGreen"/>
             <InterpolatingParam id="929" interp="linr"  time="-9999999/1" value="255" leadInLength="0/1"   name="highlightColorRed"/>
             <InterpolatingParam id="930" interp="linr"  time="-9999999/1" value="5" leadInLength="0/1"   name="highlightFeatherSize"/>
             <InterpolatingParam id="931" interp="linr"  time="-9999999/1" value="2" leadInLength="0/1"   name="highlightMagnification"/>
             <InterpolatingParam id="932" interp="linr"  time="-9999999/1" value="1" leadInLength="0/1"   name="highlightOpacity"/>
             <InterpolatingParam id="933" interp="linr"  time="-9999999/1" value="45" leadInLength="0/1"   name="highlightSize"/>
             <Parameter id="934"   name="highlightType">
              <Keyframes>
              <Keyframe id="935"  time="-9999999/1" value="0" leadInLength="0/1"  />
              </Keyframes>
             </Parameter>
             <InterpolatingParam id="936" interp="linr"  time="-9999999/1" value="0" leadInLength="0/1"   name="leftClickColorBlue"/>
             <InterpolatingParam id="937" interp="linr"  time="-9999999/1" value="0" leadInLength="0/1"   name="leftClickColorGreen"/>
             <InterpolatingParam id="938" interp="linr"  time="-9999999/1" value="255" leadInLength="0/1"   name="leftClickColorRed"/>
             <InterpolatingParam id="939" interp="linr"  time="-9999999/1" value="0.80000000000000004" leadInLength="0/1"   name="leftClickDuration"/>
             <InterpolatingParam id="940" interp="linr"  time="-9999999/1" value="20" leadInLength="0/1"   name="leftClickSize"/>
             <Parameter id="941"   name="leftClickSoundFilename">
              <Keyframes>
              <Keyframe id="942"  time="-9999999/1" value="" leadInLength="0/1"  />
              </Keyframes>
             </Parameter>
             <InterpolatingParam id="943" interp="linr"  time="-9999999/1" value="1" leadInLength="0/1"   name="leftClickSoundVolume"/>
             <Parameter id="944"   name="leftClickType">
              <Keyframes>
              <Keyframe id="945"  time="-9999999/1" value="0" leadInLength="0/1"  />
              </Keyframes>
             </Parameter>
             <InterpolatingParam id="946" interp="linr"  time="-9999999/1" value="1" leadInLength="0/1"   name="opacity"/>
             <InterpolatingParam id="947" interp="linr"  time="-9999999/1" value="255" leadInLength="0/1"   name="rightClickColorBlue"/>
             <InterpolatingParam id="948" interp="linr"  time="-9999999/1" value="0" leadInLength="0/1"   name="rightClickColorGreen"/>
             <InterpolatingParam id="949" interp="linr"  time="-9999999/1" value="0" leadInLength="0/1"   name="rightClickColorRed"/>
             <InterpolatingParam id="950" interp="linr"  time="-9999999/1" value="0.80000000000000004" leadInLength="0/1"   name="rightClickDuration"/>
             <InterpolatingParam id="951" interp="linr"  time="-9999999/1" value="20" leadInLength="0/1"   name="rightClickSize"/>
             <Parameter id="952"   name="rightClickSoundFilename">
              <Keyframes>
              <Keyframe id="953"  time="-9999999/1" value="" leadInLength="0/1"  />
              </Keyframes>
             </Parameter>
             <InterpolatingParam id="954" interp="linr"  time="-9999999/1" value="1" leadInLength="0/1"   name="rightClickSoundVolume"/>
             <Parameter id="955"   name="rightClickType">
              <Keyframes>
              <Keyframe id="956"  time="-9999999/1" value="0" leadInLength="0/1"  />
              </Keyframes>
             </Parameter>
             </Parameters>
             <MetaData>
              <entry key="effectIndex" val="0"/>
             </MetaData>
            </GenericEffect>
           </Effects>
           <Attributes>
            <Attribute id="957" value="" name="ident"/>
           </Attributes>
           <ExtraData>
            <Entry key="ZoomPanBin">
             <ZoomPanBin id="958"  >
              <ZoomPanKeyframes>
               <ZoomPanKeyframe id="959" timeRangeEnd="-9999999/1" timeRangeDuration="0/1" interpolaterName="linr"  />
              </ZoomPanKeyframes>
             </ZoomPanBin>
            </Entry>
            <Entry key="CursorEffectBin">
             <CursorEffectBin id="960"  >
              <CursorEffectKeyframes>
               <CursorEffectKeyframe id="961" timeRangeEnd="-9999999/1" timeRangeDuration="0/1" interpolaterName=""  />
              </CursorEffectKeyframes>
             </CursorEffectBin>
            </Entry>
           </ExtraData>
          </ScreenVMFile>
          <MetaData>
           <entry key="AutoAppliedSmartFocus" val="False"/>
           <entry key="WinSubProjectDisplayName" val=""/>
          </MetaData>
         </UnifiedMedia>
         <UnifiedMedia id="962"  >
          <AMFile id="963" start="21923" duration="839" scalar="1/1" mediaStart="0/1" mediaDuration="839/1" trackNumber="1" src="14" channelNumber="0,1" >
           <Parameters>
            <InterpolatingParam id="964" interp="linr"  time="0/1" value="1" leadInLength="0/1"  name="volume"/>
            <Parameter id="965"  name="captions"/>
           </Parameters>
           <Attributes>
            <Attribute id="966" value="" name="ident"/>
            <Attribute id="967" value="44100" name="sampleRate"/>
            <Attribute id="968" value="16" name="bitDepth"/>
            <Attribute id="969" value="1" name="gain"/>
            <Attribute id="970" value="0" name="mixToMono"/>
           </Attributes>
          </AMFile>
          <ScreenVMFile id="971" start="21923" duration="839" scalar="1/1" mediaStart="0/1" mediaDuration="839/1" trackNumber="0" src="14" >
           <Transformer>
            <VectorParam id="972"  name="translation">
             <InterpolatingParam id="973" interp="linr"  time="-9999999/1" value="0" leadInLength="0/1"  />
             <InterpolatingParam id="974" interp="linr"  time="-9999999/1" value="0" leadInLength="0/1"  />
             <InterpolatingParam id="975" interp="linr"  time="-9999999/1" value="0" leadInLength="0/1"  />
            </VectorParam>
            <VectorParam id="976"  name="rotation">
             <InterpolatingParam id="977" interp="linr"  time="-9999999/1" value="0" leadInLength="0/1"  />
             <InterpolatingParam id="978" interp="linr"  time="-9999999/1" value="0" leadInLength="0/1"  />
             <InterpolatingParam id="979" interp="linr"  time="-9999999/1" value="0" leadInLength="0/1"  />
            </VectorParam>
            <VectorParam id="980"  name="shear">
             <InterpolatingParam id="981" interp="linr"  time="-9999999/1" value="0" leadInLength="0/1"  />
             <InterpolatingParam id="982" interp="linr"  time="-9999999/1" value="0" leadInLength="0/1"  />
             <InterpolatingParam id="983" interp="linr"  time="-9999999/1" value="0" leadInLength="0/1"  />
            </VectorParam>
            <VectorParam id="984"  name="scale">
             <InterpolatingParam id="985" interp="linr"  time="-9999999/1" value="0.98901098901098905" leadInLength="0/1"  />
             <InterpolatingParam id="986" interp="linr"  time="-9999999/1" value="0.98901098901098905" leadInLength="0/1"  />
             <InterpolatingParam id="987" interp="linr"  time="-9999999/1" value="1" leadInLength="0/1"  />
            </VectorParam>
            <VectorParam id="988"  name="anchor">
             <InterpolatingParam id="989" interp="linr"  time="0/1" value="0" leadInLength="0/1"  />
             <InterpolatingParam id="990" interp="linr"  time="0/1" value="0" leadInLength="0/1"  />
             <InterpolatingParam id="991" interp="linr"  time="0/1" value="0" leadInLength="0/1"  />
            </VectorParam>
           </Transformer>
           <Parameters>
            <VectorParam id="992"  name="sourceCrop">
             <InterpolatingParam id="993" interp="linr"  time="0/1" value="0" leadInLength="0/1"  />
             <InterpolatingParam id="994" interp="linr"  time="0/1" value="0" leadInLength="0/1"  />
             <InterpolatingParam id="995" interp="linr"  time="0/1" value="0" leadInLength="0/1"  />
             <InterpolatingParam id="996" interp="linr"  time="0/1" value="0" leadInLength="0/1"  />
            </VectorParam>
            <VectorParam id="997"  name="geometryCrop">
             <InterpolatingParam id="998" interp="linr"  time="-9999999/1" value="0" leadInLength="0/1"  />
             <InterpolatingParam id="999" interp="linr"  time="-9999999/1" value="0" leadInLength="0/1"  />
             <InterpolatingParam id="1000" interp="linr"  time="-9999999/1" value="0" leadInLength="0/1"  />
             <InterpolatingParam id="1001" interp="linr"  time="-9999999/1" value="0" leadInLength="0/1"  />
            </VectorParam>
            <InterpolatingParam id="1002" interp="linr"  time="-9999999/1" value="1" leadInLength="0/1"  name="opacity"/>
            <InterpolatingParam id="1003" interp="linr"  time="0/1" value="1" leadInLength="0/1"  name="cursorOpacity"/>
            <InterpolatingParam id="1004" interp="linr"  time="0/1" value="1" leadInLength="0/1"  name="cursorScale"/>
           </Parameters>
           <Effects>
            <GenericEffect id="1005" name = "CursorBaseEffectName" >
             <Parameters>
             <InterpolatingParam id="1006" interp="linr"  time="-9999999/1" value="1" leadInLength="0/1"   name="cursorSize"/>
             <InterpolatingParam id="1007" interp="linr"  time="-9999999/1" value="0" leadInLength="0/1"   name="highlightBlurRadius"/>
             <InterpolatingParam id="1008" interp="linr"  time="-9999999/1" value="0" leadInLength="0/1"   name="highlightColorBlue"/>
             <InterpolatingParam id="1009" interp="linr"  time="-9999999/1" value="255" leadInLength="0/1"   name="highlightColorGreen"/>
             <InterpolatingParam id="1010" interp="linr"  time="-9999999/1" value="255" leadInLength="0/1"   name="highlightColorRed"/>
             <InterpolatingParam id="1011" interp="linr"  time="-9999999/1" value="5" leadInLength="0/1"   name="highlightFeatherSize"/>
             <InterpolatingParam id="1012" interp="linr"  time="-9999999/1" value="2" leadInLength="0/1"   name="highlightMagnification"/>
             <InterpolatingParam id="1013" interp="linr"  time="-9999999/1" value="1" leadInLength="0/1"   name="highlightOpacity"/>
             <InterpolatingParam id="1014" interp="linr"  time="-9999999/1" value="45" leadInLength="0/1"   name="highlightSize"/>
             <Parameter id="1015"   name="highlightType">
              <Keyframes>
              <Keyframe id="1016"  time="-9999999/1" value="0" leadInLength="0/1"  />
              </Keyframes>
             </Parameter>
             <InterpolatingParam id="1017" interp="linr"  time="-9999999/1" value="0" leadInLength="0/1"   name="leftClickColorBlue"/>
             <InterpolatingParam id="1018" interp="linr"  time="-9999999/1" value="0" leadInLength="0/1"   name="leftClickColorGreen"/>
             <InterpolatingParam id="1019" interp="linr"  time="-9999999/1" value="255" leadInLength="0/1"   name="leftClickColorRed"/>
             <InterpolatingParam id="1020" interp="linr"  time="-9999999/1" value="0.80000000000000004" leadInLength="0/1"   name="leftClickDuration"/>
             <InterpolatingParam id="1021" interp="linr"  time="-9999999/1" value="20" leadInLength="0/1"   name="leftClickSize"/>
             <Parameter id="1022"   name="leftClickSoundFilename">
              <Keyframes>
              <Keyframe id="1023"  time="-9999999/1" value="" leadInLength="0/1"  />
              </Keyframes>
             </Parameter>
             <InterpolatingParam id="1024" interp="linr"  time="-9999999/1" value="1" leadInLength="0/1"   name="leftClickSoundVolume"/>
             <Parameter id="1025"   name="leftClickType">
              <Keyframes>
              <Keyframe id="1026"  time="-9999999/1" value="0" leadInLength="0/1"  />
              </Keyframes>
             </Parameter>
             <InterpolatingParam id="1027" interp="linr"  time="-9999999/1" value="1" leadInLength="0/1"   name="opacity"/>
             <InterpolatingParam id="1028" interp="linr"  time="-9999999/1" value="255" leadInLength="0/1"   name="rightClickColorBlue"/>
             <InterpolatingParam id="1029" interp="linr"  time="-9999999/1" value="0" leadInLength="0/1"   name="rightClickColorGreen"/>
             <InterpolatingParam id="1030" interp="linr"  time="-9999999/1" value="0" leadInLength="0/1"   name="rightClickColorRed"/>
             <InterpolatingParam id="1031" interp="linr"  time="-9999999/1" value="0.80000000000000004" leadInLength="0/1"   name="rightClickDuration"/>
             <InterpolatingParam id="1032" interp="linr"  time="-9999999/1" value="20" leadInLength="0/1"   name="rightClickSize"/>
             <Parameter id="1033"   name="rightClickSoundFilename">
              <Keyframes>
              <Keyframe id="1034"  time="-9999999/1" value="" leadInLength="0/1"  />
              </Keyframes>
             </Parameter>
             <InterpolatingParam id="1035" interp="linr"  time="-9999999/1" value="1" leadInLength="0/1"   name="rightClickSoundVolume"/>
             <Parameter id="1036"   name="rightClickType">
              <Keyframes>
              <Keyframe id="1037"  time="-9999999/1" value="0" leadInLength="0/1"  />
              </Keyframes>
             </Parameter>
             </Parameters>
             <MetaData>
              <entry key="effectIndex" val="0"/>
             </MetaData>
            </GenericEffect>
           </Effects>
           <Attributes>
            <Attribute id="1038" value="" name="ident"/>
           </Attributes>
           <ExtraData>
            <Entry key="ZoomPanBin">
             <ZoomPanBin id="1039"  >
              <ZoomPanKeyframes>
               <ZoomPanKeyframe id="1040" timeRangeEnd="-9999999/1" timeRangeDuration="0/1" interpolaterName="linr"  />
              </ZoomPanKeyframes>
             </ZoomPanBin>
            </Entry>
            <Entry key="CursorEffectBin">
             <CursorEffectBin id="1041"  >
              <CursorEffectKeyframes>
               <CursorEffectKeyframe id="1042" timeRangeEnd="-9999999/1" timeRangeDuration="0/1" interpolaterName=""  />
              </CursorEffectKeyframes>
             </CursorEffectBin>
            </Entry>
           </ExtraData>
          </ScreenVMFile>
          <MetaData>
           <entry key="AutoAppliedSmartFocus" val="False"/>
           <entry key="WinSubProjectDisplayName" val=""/>
          </MetaData>
         </UnifiedMedia>
         <UnifiedMedia id="1043"  >
          <AMFile id="1044" start="22762" duration="3556" scalar="1/1" mediaStart="0/1" mediaDuration="3556/1" trackNumber="1" src="15" channelNumber="0,1" >
           <Parameters>
            <InterpolatingParam id="1045" interp="linr"  time="0/1" value="1" leadInLength="0/1"  name="volume"/>
            <Parameter id="1046"  name="captions"/>
           </Parameters>
           <Attributes>
            <Attribute id="1047" value="" name="ident"/>
            <Attribute id="1048" value="44100" name="sampleRate"/>
            <Attribute id="1049" value="16" name="bitDepth"/>
            <Attribute id="1050" value="1" name="gain"/>
            <Attribute id="1051" value="0" name="mixToMono"/>
           </Attributes>
          </AMFile>
          <ScreenVMFile id="1052" start="22762" duration="3556" scalar="1/1" mediaStart="0/1" mediaDuration="3556/1" trackNumber="0" src="15" >
           <Transformer>
            <VectorParam id="1053"  name="translation">
             <InterpolatingParam id="1054" interp="linr"  time="-9999999/1" value="0" leadInLength="0/1"  />
             <InterpolatingParam id="1055" interp="linr"  time="-9999999/1" value="0" leadInLength="0/1"  />
             <InterpolatingParam id="1056" interp="linr"  time="-9999999/1" value="0" leadInLength="0/1"  />
            </VectorParam>
            <VectorParam id="1057"  name="rotation">
             <InterpolatingParam id="1058" interp="linr"  time="-9999999/1" value="0" leadInLength="0/1"  />
             <InterpolatingParam id="1059" interp="linr"  time="-9999999/1" value="0" leadInLength="0/1"  />
             <InterpolatingParam id="1060" interp="linr"  time="-9999999/1" value="0" leadInLength="0/1"  />
            </VectorParam>
            <VectorParam id="1061"  name="shear">
             <InterpolatingParam id="1062" interp="linr"  time="-9999999/1" value="0" leadInLength="0/1"  />
             <InterpolatingParam id="1063" interp="linr"  time="-9999999/1" value="0" leadInLength="0/1"  />
             <InterpolatingParam id="1064" interp="linr"  time="-9999999/1" value="0" leadInLength="0/1"  />
            </VectorParam>
            <VectorParam id="1065"  name="scale">
             <InterpolatingParam id="1066" interp="linr"  time="-9999999/1" value="0.98901098901098905" leadInLength="0/1"  />
             <InterpolatingParam id="1067" interp="linr"  time="-9999999/1" value="0.98901098901098905" leadInLength="0/1"  />
             <InterpolatingParam id="1068" interp="linr"  time="-9999999/1" value="1" leadInLength="0/1"  />
            </VectorParam>
            <VectorParam id="1069"  name="anchor">
             <InterpolatingParam id="1070" interp="linr"  time="0/1" value="0" leadInLength="0/1"  />
             <InterpolatingParam id="1071" interp="linr"  time="0/1" value="0" leadInLength="0/1"  />
             <InterpolatingParam id="1072" interp="linr"  time="0/1" value="0" leadInLength="0/1"  />
            </VectorParam>
           </Transformer>
           <Parameters>
            <VectorParam id="1073"  name="sourceCrop">
             <InterpolatingParam id="1074" interp="linr"  time="0/1" value="0" leadInLength="0/1"  />
             <InterpolatingParam id="1075" interp="linr"  time="0/1" value="0" leadInLength="0/1"  />
             <InterpolatingParam id="1076" interp="linr"  time="0/1" value="0" leadInLength="0/1"  />
             <InterpolatingParam id="1077" interp="linr"  time="0/1" value="0" leadInLength="0/1"  />
            </VectorParam>
            <VectorParam id="1078"  name="geometryCrop">
             <InterpolatingParam id="1079" interp="linr"  time="-9999999/1" value="0" leadInLength="0/1"  />
             <InterpolatingParam id="1080" interp="linr"  time="-9999999/1" value="0" leadInLength="0/1"  />
             <InterpolatingParam id="1081" interp="linr"  time="-9999999/1" value="0" leadInLength="0/1"  />
             <InterpolatingParam id="1082" interp="linr"  time="-9999999/1" value="0" leadInLength="0/1"  />
            </VectorParam>
            <InterpolatingParam id="1083" interp="linr"  time="-9999999/1" value="1" leadInLength="0/1"  name="opacity"/>
            <InterpolatingParam id="1084" interp="linr"  time="0/1" value="1" leadInLength="0/1"  name="cursorOpacity"/>
            <InterpolatingParam id="1085" interp="linr"  time="0/1" value="1" leadInLength="0/1"  name="cursorScale"/>
           </Parameters>
           <Effects>
            <GenericEffect id="1086" name = "CursorBaseEffectName" >
             <Parameters>
             <InterpolatingParam id="1087" interp="linr"  time="-9999999/1" value="1" leadInLength="0/1"   name="cursorSize"/>
             <InterpolatingParam id="1088" interp="linr"  time="-9999999/1" value="0" leadInLength="0/1"   name="highlightBlurRadius"/>
             <InterpolatingParam id="1089" interp="linr"  time="-9999999/1" value="0" leadInLength="0/1"   name="highlightColorBlue"/>
             <InterpolatingParam id="1090" interp="linr"  time="-9999999/1" value="255" leadInLength="0/1"   name="highlightColorGreen"/>
             <InterpolatingParam id="1091" interp="linr"  time="-9999999/1" value="255" leadInLength="0/1"   name="highlightColorRed"/>
             <InterpolatingParam id="1092" interp="linr"  time="-9999999/1" value="5" leadInLength="0/1"   name="highlightFeatherSize"/>
             <InterpolatingParam id="1093" interp="linr"  time="-9999999/1" value="2" leadInLength="0/1"   name="highlightMagnification"/>
             <InterpolatingParam id="1094" interp="linr"  time="-9999999/1" value="1" leadInLength="0/1"   name="highlightOpacity"/>
             <InterpolatingParam id="1095" interp="linr"  time="-9999999/1" value="45" leadInLength="0/1"   name="highlightSize"/>
             <Parameter id="1096"   name="highlightType">
              <Keyframes>
              <Keyframe id="1097"  time="-9999999/1" value="0" leadInLength="0/1"  />
              </Keyframes>
             </Parameter>
             <InterpolatingParam id="1098" interp="linr"  time="-9999999/1" value="0" leadInLength="0/1"   name="leftClickColorBlue"/>
             <InterpolatingParam id="1099" interp="linr"  time="-9999999/1" value="0" leadInLength="0/1"   name="leftClickColorGreen"/>
             <InterpolatingParam id="1100" interp="linr"  time="-9999999/1" value="255" leadInLength="0/1"   name="leftClickColorRed"/>
             <InterpolatingParam id="1101" interp="linr"  time="-9999999/1" value="0.80000000000000004" leadInLength="0/1"   name="leftClickDuration"/>
             <InterpolatingParam id="1102" interp="linr"  time="-9999999/1" value="20" leadInLength="0/1"   name="leftClickSize"/>
             <Parameter id="1103"   name="leftClickSoundFilename">
              <Keyframes>
              <Keyframe id="1104"  time="-9999999/1" value="" leadInLength="0/1"  />
              </Keyframes>
             </Parameter>
             <InterpolatingParam id="1105" interp="linr"  time="-9999999/1" value="1" leadInLength="0/1"   name="leftClickSoundVolume"/>
             <Parameter id="1106"   name="leftClickType">
              <Keyframes>
              <Keyframe id="1107"  time="-9999999/1" value="0" leadInLength="0/1"  />
              </Keyframes>
             </Parameter>
             <InterpolatingParam id="1108" interp="linr"  time="-9999999/1" value="1" leadInLength="0/1"   name="opacity"/>
             <InterpolatingParam id="1109" interp="linr"  time="-9999999/1" value="255" leadInLength="0/1"   name="rightClickColorBlue"/>
             <InterpolatingParam id="1110" interp="linr"  time="-9999999/1" value="0" leadInLength="0/1"   name="rightClickColorGreen"/>
             <InterpolatingParam id="1111" interp="linr"  time="-9999999/1" value="0" leadInLength="0/1"   name="rightClickColorRed"/>
             <InterpolatingParam id="1112" interp="linr"  time="-9999999/1" value="0.80000000000000004" leadInLength="0/1"   name="rightClickDuration"/>
             <InterpolatingParam id="1113" interp="linr"  time="-9999999/1" value="20" leadInLength="0/1"   name="rightClickSize"/>
             <Parameter id="1114"   name="rightClickSoundFilename">
              <Keyframes>
              <Keyframe id="1115"  time="-9999999/1" value="" leadInLength="0/1"  />
              </Keyframes>
             </Parameter>
             <InterpolatingParam id="1116" interp="linr"  time="-9999999/1" value="1" leadInLength="0/1"   name="rightClickSoundVolume"/>
             <Parameter id="1117"   name="rightClickType">
              <Keyframes>
              <Keyframe id="1118"  time="-9999999/1" value="0" leadInLength="0/1"  />
              </Keyframes>
             </Parameter>
             </Parameters>
             <MetaData>
              <entry key="effectIndex" val="0"/>
             </MetaData>
            </GenericEffect>
           </Effects>
           <Attributes>
            <Attribute id="1119" value="" name="ident"/>
           </Attributes>
           <ExtraData>
            <Entry key="ZoomPanBin">
             <ZoomPanBin id="1120"  >
              <ZoomPanKeyframes>
               <ZoomPanKeyframe id="1121" timeRangeEnd="-9999999/1" timeRangeDuration="0/1" interpolaterName="linr"  />
              </ZoomPanKeyframes>
             </ZoomPanBin>
            </Entry>
            <Entry key="CursorEffectBin">
             <CursorEffectBin id="1122"  >
              <CursorEffectKeyframes>
               <CursorEffectKeyframe id="1123" timeRangeEnd="-9999999/1" timeRangeDuration="0/1" interpolaterName=""  />
              </CursorEffectKeyframes>
             </CursorEffectBin>
            </Entry>
           </ExtraData>
          </ScreenVMFile>
          <MetaData>
           <entry key="AutoAppliedSmartFocus" val="False"/>
           <entry key="WinSubProjectDisplayName" val=""/>
          </MetaData>
         </UnifiedMedia>
         <UnifiedMedia id="1124"  >
          <AMFile id="1125" start="26318" duration="9195" scalar="1/1" mediaStart="0/1" mediaDuration="9195/1" trackNumber="1" src="16" channelNumber="0,1" >
           <Parameters>
            <InterpolatingParam id="1126" interp="linr"  time="0/1" value="1" leadInLength="0/1"  name="volume"/>
            <Parameter id="1127"  name="captions"/>
           </Parameters>
           <Attributes>
            <Attribute id="1128" value="" name="ident"/>
            <Attribute id="1129" value="44100" name="sampleRate"/>
            <Attribute id="1130" value="16" name="bitDepth"/>
            <Attribute id="1131" value="1" name="gain"/>
            <Attribute id="1132" value="0" name="mixToMono"/>
           </Attributes>
          </AMFile>
          <ScreenVMFile id="1133" start="26318" duration="9195" scalar="1/1" mediaStart="0/1" mediaDuration="9195/1" trackNumber="0" src="16" >
           <Transformer>
            <VectorParam id="1134"  name="translation">
             <InterpolatingParam id="1135" interp="linr"  time="-9999999/1" value="0" leadInLength="0/1"  />
             <InterpolatingParam id="1136" interp="linr"  time="-9999999/1" value="0" leadInLength="0/1"  />
             <InterpolatingParam id="1137" interp="linr"  time="-9999999/1" value="0" leadInLength="0/1"  />
            </VectorParam>
            <VectorParam id="1138"  name="rotation">
             <InterpolatingParam id="1139" interp="linr"  time="-9999999/1" value="0" leadInLength="0/1"  />
             <InterpolatingParam id="1140" interp="linr"  time="-9999999/1" value="0" leadInLength="0/1"  />
             <InterpolatingParam id="1141" interp="linr"  time="-9999999/1" value="0" leadInLength="0/1"  />
            </VectorParam>
            <VectorParam id="1142"  name="shear">
             <InterpolatingParam id="1143" interp="linr"  time="-9999999/1" value="0" leadInLength="0/1"  />
             <InterpolatingParam id="1144" interp="linr"  time="-9999999/1" value="0" leadInLength="0/1"  />
             <InterpolatingParam id="1145" interp="linr"  time="-9999999/1" value="0" leadInLength="0/1"  />
            </VectorParam>
            <VectorParam id="1146"  name="scale">
             <InterpolatingParam id="1147" interp="linr"  time="-9999999/1" value="0.98901098901098905" leadInLength="0/1"  />
             <InterpolatingParam id="1148" interp="linr"  time="-9999999/1" value="0.98901098901098905" leadInLength="0/1"  />
             <InterpolatingParam id="1149" interp="linr"  time="-9999999/1" value="1" leadInLength="0/1"  />
            </VectorParam>
            <VectorParam id="1150"  name="anchor">
             <InterpolatingParam id="1151" interp="linr"  time="0/1" value="0" leadInLength="0/1"  />
             <InterpolatingParam id="1152" interp="linr"  time="0/1" value="0" leadInLength="0/1"  />
             <InterpolatingParam id="1153" interp="linr"  time="0/1" value="0" leadInLength="0/1"  />
            </VectorParam>
           </Transformer>
           <Parameters>
            <VectorParam id="1154"  name="sourceCrop">
             <InterpolatingParam id="1155" interp="linr"  time="0/1" value="0" leadInLength="0/1"  />
             <InterpolatingParam id="1156" interp="linr"  time="0/1" value="0" leadInLength="0/1"  />
             <InterpolatingParam id="1157" interp="linr"  time="0/1" value="0" leadInLength="0/1"  />
             <InterpolatingParam id="1158" interp="linr"  time="0/1" value="0" leadInLength="0/1"  />
            </VectorParam>
            <VectorParam id="1159"  name="geometryCrop">
             <InterpolatingParam id="1160" interp="linr"  time="-9999999/1" value="0" leadInLength="0/1"  />
             <InterpolatingParam id="1161" interp="linr"  time="-9999999/1" value="0" leadInLength="0/1"  />
             <InterpolatingParam id="1162" interp="linr"  time="-9999999/1" value="0" leadInLength="0/1"  />
             <InterpolatingParam id="1163" interp="linr"  time="-9999999/1" value="0" leadInLength="0/1"  />
            </VectorParam>
            <InterpolatingParam id="1164" interp="linr"  time="-9999999/1" value="1" leadInLength="0/1"  name="opacity"/>
            <InterpolatingParam id="1165" interp="linr"  time="0/1" value="1" leadInLength="0/1"  name="cursorOpacity"/>
            <InterpolatingParam id="1166" interp="linr"  time="0/1" value="1" leadInLength="0/1"  name="cursorScale"/>
           </Parameters>
           <Effects>
            <GenericEffect id="1167" name = "CursorBaseEffectName" >
             <Parameters>
             <InterpolatingParam id="1168" interp="linr"  time="-9999999/1" value="1" leadInLength="0/1"   name="cursorSize"/>
             <InterpolatingParam id="1169" interp="linr"  time="-9999999/1" value="0" leadInLength="0/1"   name="highlightBlurRadius"/>
             <InterpolatingParam id="1170" interp="linr"  time="-9999999/1" value="0" leadInLength="0/1"   name="highlightColorBlue"/>
             <InterpolatingParam id="1171" interp="linr"  time="-9999999/1" value="255" leadInLength="0/1"   name="highlightColorGreen"/>
             <InterpolatingParam id="1172" interp="linr"  time="-9999999/1" value="255" leadInLength="0/1"   name="highlightColorRed"/>
             <InterpolatingParam id="1173" interp="linr"  time="-9999999/1" value="5" leadInLength="0/1"   name="highlightFeatherSize"/>
             <InterpolatingParam id="1174" interp="linr"  time="-9999999/1" value="2" leadInLength="0/1"   name="highlightMagnification"/>
             <InterpolatingParam id="1175" interp="linr"  time="-9999999/1" value="1" leadInLength="0/1"   name="highlightOpacity"/>
             <InterpolatingParam id="1176" interp="linr"  time="-9999999/1" value="45" leadInLength="0/1"   name="highlightSize"/>
             <Parameter id="1177"   name="highlightType">
              <Keyframes>
              <Keyframe id="1178"  time="-9999999/1" value="0" leadInLength="0/1"  />
              </Keyframes>
             </Parameter>
             <InterpolatingParam id="1179" interp="linr"  time="-9999999/1" value="0" leadInLength="0/1"   name="leftClickColorBlue"/>
             <InterpolatingParam id="1180" interp="linr"  time="-9999999/1" value="0" leadInLength="0/1"   name="leftClickColorGreen"/>
             <InterpolatingParam id="1181" interp="linr"  time="-9999999/1" value="255" leadInLength="0/1"   name="leftClickColorRed"/>
             <InterpolatingParam id="1182" interp="linr"  time="-9999999/1" value="0.80000000000000004" leadInLength="0/1"   name="leftClickDuration"/>
             <InterpolatingParam id="1183" interp="linr"  time="-9999999/1" value="20" leadInLength="0/1"   name="leftClickSize"/>
             <Parameter id="1184"   name="leftClickSoundFilename">
              <Keyframes>
              <Keyframe id="1185"  time="-9999999/1" value="" leadInLength="0/1"  />
              </Keyframes>
             </Parameter>
             <InterpolatingParam id="1186" interp="linr"  time="-9999999/1" value="1" leadInLength="0/1"   name="leftClickSoundVolume"/>
             <Parameter id="1187"   name="leftClickType">
              <Keyframes>
              <Keyframe id="1188"  time="-9999999/1" value="0" leadInLength="0/1"  />
              </Keyframes>
             </Parameter>
             <InterpolatingParam id="1189" interp="linr"  time="-9999999/1" value="1" leadInLength="0/1"   name="opacity"/>
             <InterpolatingParam id="1190" interp="linr"  time="-9999999/1" value="255" leadInLength="0/1"   name="rightClickColorBlue"/>
             <InterpolatingParam id="1191" interp="linr"  time="-9999999/1" value="0" leadInLength="0/1"   name="rightClickColorGreen"/>
             <InterpolatingParam id="1192" interp="linr"  time="-9999999/1" value="0" leadInLength="0/1"   name="rightClickColorRed"/>
             <InterpolatingParam id="1193" interp="linr"  time="-9999999/1" value="0.80000000000000004" leadInLength="0/1"   name="rightClickDuration"/>
             <InterpolatingParam id="1194" interp="linr"  time="-9999999/1" value="20" leadInLength="0/1"   name="rightClickSize"/>
             <Parameter id="1195"   name="rightClickSoundFilename">
              <Keyframes>
              <Keyframe id="1196"  time="-9999999/1" value="" leadInLength="0/1"  />
              </Keyframes>
             </Parameter>
             <InterpolatingParam id="1197" interp="linr"  time="-9999999/1" value="1" leadInLength="0/1"   name="rightClickSoundVolume"/>
             <Parameter id="1198"   name="rightClickType">
              <Keyframes>
              <Keyframe id="1199"  time="-9999999/1" value="0" leadInLength="0/1"  />
              </Keyframes>
             </Parameter>
             </Parameters>
             <MetaData>
              <entry key="effectIndex" val="0"/>
             </MetaData>
            </GenericEffect>
           </Effects>
           <Attributes>
            <Attribute id="1200" value="" name="ident"/>
           </Attributes>
           <ExtraData>
            <Entry key="ZoomPanBin">
             <ZoomPanBin id="1201"  >
              <ZoomPanKeyframes>
               <ZoomPanKeyframe id="1202" timeRangeEnd="-9999999/1" timeRangeDuration="0/1" interpolaterName="linr"  />
              </ZoomPanKeyframes>
             </ZoomPanBin>
            </Entry>
            <Entry key="CursorEffectBin">
             <CursorEffectBin id="1203"  >
              <CursorEffectKeyframes>
               <CursorEffectKeyframe id="1204" timeRangeEnd="-9999999/1" timeRangeDuration="0/1" interpolaterName=""  />
              </CursorEffectKeyframes>
             </CursorEffectBin>
            </Entry>
           </ExtraData>
          </ScreenVMFile>
          <MetaData>
           <entry key="AutoAppliedSmartFocus" val="False"/>
           <entry key="WinSubProjectDisplayName" val=""/>
          </MetaData>
         </UnifiedMedia>
         <UnifiedMedia id="1205"  >
          <AMFile id="1206" start="35513" duration="4902" scalar="1/1" mediaStart="0/1" mediaDuration="4902/1" trackNumber="1" src="17" channelNumber="0,1" >
           <Parameters>
            <InterpolatingParam id="1207" interp="linr"  time="0/1" value="1" leadInLength="0/1"  name="volume"/>
            <Parameter id="1208"  name="captions"/>
           </Parameters>
           <Attributes>
            <Attribute id="1209" value="" name="ident"/>
            <Attribute id="1210" value="44100" name="sampleRate"/>
            <Attribute id="1211" value="16" name="bitDepth"/>
            <Attribute id="1212" value="1" name="gain"/>
            <Attribute id="1213" value="0" name="mixToMono"/>
           </Attributes>
          </AMFile>
          <ScreenVMFile id="1214" start="35513" duration="4902" scalar="1/1" mediaStart="0/1" mediaDuration="4902/1" trackNumber="0" src="17" >
           <Transformer>
            <VectorParam id="1215"  name="translation">
             <InterpolatingParam id="1216" interp="linr"  time="-9999999/1" value="7.9073187327527646e-011" leadInLength="0/1"  />
             <InterpolatingParam id="1217" interp="linr"  time="-9999999/1" value="2.9571070866710454e-011" leadInLength="0/1"  />
             <InterpolatingParam id="1218" interp="linr"  time="-9999999/1" value="0" leadInLength="0/1"  />
            </VectorParam>
            <VectorParam id="1219"  name="rotation">
             <InterpolatingParam id="1220" interp="linr"  time="-9999999/1" value="0" leadInLength="0/1"  />
             <InterpolatingParam id="1221" interp="linr"  time="-9999999/1" value="0" leadInLength="0/1"  />
             <InterpolatingParam id="1222" interp="linr"  time="-9999999/1" value="0" leadInLength="0/1"  />
            </VectorParam>
            <VectorParam id="1223"  name="shear">
             <InterpolatingParam id="1224" interp="linr"  time="-9999999/1" value="0" leadInLength="0/1"  />
             <InterpolatingParam id="1225" interp="linr"  time="-9999999/1" value="0" leadInLength="0/1"  />
             <InterpolatingParam id="1226" interp="linr"  time="-9999999/1" value="0" leadInLength="0/1"  />
            </VectorParam>
            <VectorParam id="1227"  name="scale">
             <InterpolatingParam id="1228" interp="linr"  time="-9999999/1" value="0.98901098901098905" leadInLength="0/1"  />
             <InterpolatingParam id="1229" interp="linr"  time="-9999999/1" value="0.98901098901098905" leadInLength="0/1"  />
             <InterpolatingParam id="1230" interp="linr"  time="-9999999/1" value="1" leadInLength="0/1"  />
            </VectorParam>
            <VectorParam id="1231"  name="anchor">
             <InterpolatingParam id="1232" interp="linr"  time="0/1" value="0" leadInLength="0/1"  />
             <InterpolatingParam id="1233" interp="linr"  time="0/1" value="0" leadInLength="0/1"  />
             <InterpolatingParam id="1234" interp="linr"  time="0/1" value="0" leadInLength="0/1"  />
            </VectorParam>
           </Transformer>
           <Parameters>
            <VectorParam id="1235"  name="sourceCrop">
             <InterpolatingParam id="1236" interp="linr"  time="0/1" value="0" leadInLength="0/1"  />
             <InterpolatingParam id="1237" interp="linr"  time="0/1" value="0" leadInLength="0/1"  />
             <InterpolatingParam id="1238" interp="linr"  time="0/1" value="0" leadInLength="0/1"  />
             <InterpolatingParam id="1239" interp="linr"  time="0/1" value="0" leadInLength="0/1"  />
            </VectorParam>
            <VectorParam id="1240"  name="geometryCrop">
             <InterpolatingParam id="1241" interp="linr"  time="-9999999/1" value="0" leadInLength="0/1"  />
             <InterpolatingParam id="1242" interp="linr"  time="-9999999/1" value="0" leadInLength="0/1"  />
             <InterpolatingParam id="1243" interp="linr"  time="-9999999/1" value="0" leadInLength="0/1"  />
             <InterpolatingParam id="1244" interp="linr"  time="-9999999/1" value="0" leadInLength="0/1"  />
            </VectorParam>
            <InterpolatingParam id="1245" interp="linr"  time="-9999999/1" value="1" leadInLength="0/1"  name="opacity"/>
            <InterpolatingParam id="1246" interp="linr"  time="0/1" value="1" leadInLength="0/1"  name="cursorOpacity"/>
            <InterpolatingParam id="1247" interp="linr"  time="0/1" value="1" leadInLength="0/1"  name="cursorScale"/>
           </Parameters>
           <Effects>
            <GenericEffect id="1248" name = "CursorBaseEffectName" >
             <Parameters>
             <InterpolatingParam id="1249" interp="linr"  time="-9999999/1" value="1" leadInLength="0/1"   name="cursorSize"/>
             <InterpolatingParam id="1250" interp="linr"  time="-9999999/1" value="0" leadInLength="0/1"   name="highlightBlurRadius"/>
             <InterpolatingParam id="1251" interp="linr"  time="-9999999/1" value="0" leadInLength="0/1"   name="highlightColorBlue"/>
             <InterpolatingParam id="1252" interp="linr"  time="-9999999/1" value="255" leadInLength="0/1"   name="highlightColorGreen"/>
             <InterpolatingParam id="1253" interp="linr"  time="-9999999/1" value="255" leadInLength="0/1"   name="highlightColorRed"/>
             <InterpolatingParam id="1254" interp="linr"  time="-9999999/1" value="5" leadInLength="0/1"   name="highlightFeatherSize"/>
             <InterpolatingParam id="1255" interp="linr"  time="-9999999/1" value="2" leadInLength="0/1"   name="highlightMagnification"/>
             <InterpolatingParam id="1256" interp="linr"  time="-9999999/1" value="1" leadInLength="0/1"   name="highlightOpacity"/>
             <InterpolatingParam id="1257" interp="linr"  time="-9999999/1" value="45" leadInLength="0/1"   name="highlightSize"/>
             <Parameter id="1258"   name="highlightType">
              <Keyframes>
              <Keyframe id="1259"  time="-9999999/1" value="0" leadInLength="0/1"  />
              </Keyframes>
             </Parameter>
             <InterpolatingParam id="1260" interp="linr"  time="-9999999/1" value="0" leadInLength="0/1"   name="leftClickColorBlue"/>
             <InterpolatingParam id="1261" interp="linr"  time="-9999999/1" value="0" leadInLength="0/1"   name="leftClickColorGreen"/>
             <InterpolatingParam id="1262" interp="linr"  time="-9999999/1" value="255" leadInLength="0/1"   name="leftClickColorRed"/>
             <InterpolatingParam id="1263" interp="linr"  time="-9999999/1" value="0.80000000000000004" leadInLength="0/1"   name="leftClickDuration"/>
             <InterpolatingParam id="1264" interp="linr"  time="-9999999/1" value="20" leadInLength="0/1"   name="leftClickSize"/>
             <Parameter id="1265"   name="leftClickSoundFilename">
              <Keyframes>
              <Keyframe id="1266"  time="-9999999/1" value="" leadInLength="0/1"  />
              </Keyframes>
             </Parameter>
             <InterpolatingParam id="1267" interp="linr"  time="-9999999/1" value="1" leadInLength="0/1"   name="leftClickSoundVolume"/>
             <Parameter id="1268"   name="leftClickType">
              <Keyframes>
              <Keyframe id="1269"  time="-9999999/1" value="0" leadInLength="0/1"  />
              </Keyframes>
             </Parameter>
             <InterpolatingParam id="1270" interp="linr"  time="-9999999/1" value="1" leadInLength="0/1"   name="opacity"/>
             <InterpolatingParam id="1271" interp="linr"  time="-9999999/1" value="255" leadInLength="0/1"   name="rightClickColorBlue"/>
             <InterpolatingParam id="1272" interp="linr"  time="-9999999/1" value="0" leadInLength="0/1"   name="rightClickColorGreen"/>
             <InterpolatingParam id="1273" interp="linr"  time="-9999999/1" value="0" leadInLength="0/1"   name="rightClickColorRed"/>
             <InterpolatingParam id="1274" interp="linr"  time="-9999999/1" value="0.80000000000000004" leadInLength="0/1"   name="rightClickDuration"/>
             <InterpolatingParam id="1275" interp="linr"  time="-9999999/1" value="20" leadInLength="0/1"   name="rightClickSize"/>
             <Parameter id="1276"   name="rightClickSoundFilename">
              <Keyframes>
              <Keyframe id="1277"  time="-9999999/1" value="" leadInLength="0/1"  />
              </Keyframes>
             </Parameter>
             <InterpolatingParam id="1278" interp="linr"  time="-9999999/1" value="1" leadInLength="0/1"   name="rightClickSoundVolume"/>
             <Parameter id="1279"   name="rightClickType">
              <Keyframes>
              <Keyframe id="1280"  time="-9999999/1" value="0" leadInLength="0/1"  />
              </Keyframes>
             </Parameter>
             </Parameters>
             <MetaData>
              <entry key="effectIndex" val="0"/>
             </MetaData>
            </GenericEffect>
           </Effects>
           <Attributes>
            <Attribute id="1281" value="" name="ident"/>
           </Attributes>
           <ExtraData>
            <Entry key="ZoomPanBin">
             <ZoomPanBin id="1282"  >
              <ZoomPanKeyframes>
               <ZoomPanKeyframe id="1283" timeRangeEnd="-9999999/1" timeRangeDuration="0/1" interpolaterName="linr"  />
              </ZoomPanKeyframes>
             </ZoomPanBin>
            </Entry>
            <Entry key="CursorEffectBin">
             <CursorEffectBin id="1284"  >
              <CursorEffectKeyframes>
               <CursorEffectKeyframe id="1285" timeRangeEnd="-9999999/1" timeRangeDuration="0/1" interpolaterName=""  />
              </CursorEffectKeyframes>
             </CursorEffectBin>
            </Entry>
           </ExtraData>
          </ScreenVMFile>
          <MetaData>
           <entry key="AutoAppliedSmartFocus" val="False"/>
           <entry key="WinSubProjectDisplayName" val=""/>
          </MetaData>
         </UnifiedMedia>
         <UnifiedMedia id="1286"  >
          <AMFile id="1287" start="40415" duration="2331" scalar="1/1" mediaStart="0/1" mediaDuration="2331/1" trackNumber="1" src="18" channelNumber="0,1" >
           <Parameters>
            <InterpolatingParam id="1288" interp="linr"  time="0/1" value="1" leadInLength="0/1"  name="volume"/>
            <Parameter id="1289"  name="captions"/>
           </Parameters>
           <Attributes>
            <Attribute id="1290" value="" name="ident"/>
            <Attribute id="1291" value="44100" name="sampleRate"/>
            <Attribute id="1292" value="16" name="bitDepth"/>
            <Attribute id="1293" value="1" name="gain"/>
            <Attribute id="1294" value="0" name="mixToMono"/>
           </Attributes>
          </AMFile>
          <ScreenVMFile id="1295" start="40415" duration="2331" scalar="1/1" mediaStart="0/1" mediaDuration="2331/1" trackNumber="0" src="18" >
           <Transformer>
            <VectorParam id="1296"  name="translation">
             <InterpolatingParam id="1297" interp="linr"  time="-9999999/1" value="0" leadInLength="0/1"  />
             <InterpolatingParam id="1298" interp="linr"  time="-9999999/1" value="0" leadInLength="0/1"  />
             <InterpolatingParam id="1299" interp="linr"  time="-9999999/1" value="0" leadInLength="0/1"  />
            </VectorParam>
            <VectorParam id="1300"  name="rotation">
             <InterpolatingParam id="1301" interp="linr"  time="-9999999/1" value="0" leadInLength="0/1"  />
             <InterpolatingParam id="1302" interp="linr"  time="-9999999/1" value="0" leadInLength="0/1"  />
             <InterpolatingParam id="1303" interp="linr"  time="-9999999/1" value="0" leadInLength="0/1"  />
            </VectorParam>
            <VectorParam id="1304"  name="shear">
             <InterpolatingParam id="1305" interp="linr"  time="-9999999/1" value="0" leadInLength="0/1"  />
             <InterpolatingParam id="1306" interp="linr"  time="-9999999/1" value="0" leadInLength="0/1"  />
             <InterpolatingParam id="1307" interp="linr"  time="-9999999/1" value="0" leadInLength="0/1"  />
            </VectorParam>
            <VectorParam id="1308"  name="scale">
             <InterpolatingParam id="1309" interp="linr"  time="-9999999/1" value="0.98901098901098905" leadInLength="0/1"  />
             <InterpolatingParam id="1310" interp="linr"  time="-9999999/1" value="0.98901098901098905" leadInLength="0/1"  />
             <InterpolatingParam id="1311" interp="linr"  time="-9999999/1" value="1" leadInLength="0/1"  />
            </VectorParam>
            <VectorParam id="1312"  name="anchor">
             <InterpolatingParam id="1313" interp="linr"  time="0/1" value="0" leadInLength="0/1"  />
             <InterpolatingParam id="1314" interp="linr"  time="0/1" value="0" leadInLength="0/1"  />
             <InterpolatingParam id="1315" interp="linr"  time="0/1" value="0" leadInLength="0/1"  />
            </VectorParam>
           </Transformer>
           <Parameters>
            <VectorParam id="1316"  name="sourceCrop">
             <InterpolatingParam id="1317" interp="linr"  time="0/1" value="0" leadInLength="0/1"  />
             <InterpolatingParam id="1318" interp="linr"  time="0/1" value="0" leadInLength="0/1"  />
             <InterpolatingParam id="1319" interp="linr"  time="0/1" value="0" leadInLength="0/1"  />
             <InterpolatingParam id="1320" interp="linr"  time="0/1" value="0" leadInLength="0/1"  />
            </VectorParam>
            <VectorParam id="1321"  name="geometryCrop">
             <InterpolatingParam id="1322" interp="linr"  time="-9999999/1" value="0" leadInLength="0/1"  />
             <InterpolatingParam id="1323" interp="linr"  time="-9999999/1" value="0" leadInLength="0/1"  />
             <InterpolatingParam id="1324" interp="linr"  time="-9999999/1" value="0" leadInLength="0/1"  />
             <InterpolatingParam id="1325" interp="linr"  time="-9999999/1" value="0" leadInLength="0/1"  />
            </VectorParam>
            <InterpolatingParam id="1326" interp="linr"  time="-9999999/1" value="1" leadInLength="0/1"  name="opacity"/>
            <InterpolatingParam id="1327" interp="linr"  time="0/1" value="1" leadInLength="0/1"  name="cursorOpacity"/>
            <InterpolatingParam id="1328" interp="linr"  time="0/1" value="1" leadInLength="0/1"  name="cursorScale"/>
           </Parameters>
           <Effects>
            <GenericEffect id="1329" name = "CursorBaseEffectName" >
             <Parameters>
             <InterpolatingParam id="1330" interp="linr"  time="-9999999/1" value="1" leadInLength="0/1"   name="cursorSize"/>
             <InterpolatingParam id="1331" interp="linr"  time="-9999999/1" value="0" leadInLength="0/1"   name="highlightBlurRadius"/>
             <InterpolatingParam id="1332" interp="linr"  time="-9999999/1" value="0" leadInLength="0/1"   name="highlightColorBlue"/>
             <InterpolatingParam id="1333" interp="linr"  time="-9999999/1" value="255" leadInLength="0/1"   name="highlightColorGreen"/>
             <InterpolatingParam id="1334" interp="linr"  time="-9999999/1" value="255" leadInLength="0/1"   name="highlightColorRed"/>
             <InterpolatingParam id="1335" interp="linr"  time="-9999999/1" value="5" leadInLength="0/1"   name="highlightFeatherSize"/>
             <InterpolatingParam id="1336" interp="linr"  time="-9999999/1" value="2" leadInLength="0/1"   name="highlightMagnification"/>
             <InterpolatingParam id="1337" interp="linr"  time="-9999999/1" value="1" leadInLength="0/1"   name="highlightOpacity"/>
             <InterpolatingParam id="1338" interp="linr"  time="-9999999/1" value="45" leadInLength="0/1"   name="highlightSize"/>
             <Parameter id="1339"   name="highlightType">
              <Keyframes>
              <Keyframe id="1340"  time="-9999999/1" value="0" leadInLength="0/1"  />
              </Keyframes>
             </Parameter>
             <InterpolatingParam id="1341" interp="linr"  time="-9999999/1" value="0" leadInLength="0/1"   name="leftClickColorBlue"/>
             <InterpolatingParam id="1342" interp="linr"  time="-9999999/1" value="0" leadInLength="0/1"   name="leftClickColorGreen"/>
             <InterpolatingParam id="1343" interp="linr"  time="-9999999/1" value="255" leadInLength="0/1"   name="leftClickColorRed"/>
             <InterpolatingParam id="1344" interp="linr"  time="-9999999/1" value="0.80000000000000004" leadInLength="0/1"   name="leftClickDuration"/>
             <InterpolatingParam id="1345" interp="linr"  time="-9999999/1" value="20" leadInLength="0/1"   name="leftClickSize"/>
             <Parameter id="1346"   name="leftClickSoundFilename">
              <Keyframes>
              <Keyframe id="1347"  time="-9999999/1" value="" leadInLength="0/1"  />
              </Keyframes>
             </Parameter>
             <InterpolatingParam id="1348" interp="linr"  time="-9999999/1" value="1" leadInLength="0/1"   name="leftClickSoundVolume"/>
             <Parameter id="1349"   name="leftClickType">
              <Keyframes>
              <Keyframe id="1350"  time="-9999999/1" value="0" leadInLength="0/1"  />
              </Keyframes>
             </Parameter>
             <InterpolatingParam id="1351" interp="linr"  time="-9999999/1" value="1" leadInLength="0/1"   name="opacity"/>
             <InterpolatingParam id="1352" interp="linr"  time="-9999999/1" value="255" leadInLength="0/1"   name="rightClickColorBlue"/>
             <InterpolatingParam id="1353" interp="linr"  time="-9999999/1" value="0" leadInLength="0/1"   name="rightClickColorGreen"/>
             <InterpolatingParam id="1354" interp="linr"  time="-9999999/1" value="0" leadInLength="0/1"   name="rightClickColorRed"/>
             <InterpolatingParam id="1355" interp="linr"  time="-9999999/1" value="0.80000000000000004" leadInLength="0/1"   name="rightClickDuration"/>
             <InterpolatingParam id="1356" interp="linr"  time="-9999999/1" value="20" leadInLength="0/1"   name="rightClickSize"/>
             <Parameter id="1357"   name="rightClickSoundFilename">
              <Keyframes>
              <Keyframe id="1358"  time="-9999999/1" value="" leadInLength="0/1"  />
              </Keyframes>
             </Parameter>
             <InterpolatingParam id="1359" interp="linr"  time="-9999999/1" value="1" leadInLength="0/1"   name="rightClickSoundVolume"/>
             <Parameter id="1360"   name="rightClickType">
              <Keyframes>
              <Keyframe id="1361"  time="-9999999/1" value="0" leadInLength="0/1"  />
              </Keyframes>
             </Parameter>
             </Parameters>
             <MetaData>
              <entry key="effectIndex" val="0"/>
             </MetaData>
            </GenericEffect>
           </Effects>
           <Attributes>
            <Attribute id="1362" value="" name="ident"/>
           </Attributes>
           <ExtraData>
            <Entry key="ZoomPanBin">
             <ZoomPanBin id="1363"  >
              <ZoomPanKeyframes>
               <ZoomPanKeyframe id="1364" timeRangeEnd="-9999999/1" timeRangeDuration="0/1" interpolaterName="linr"  />
              </ZoomPanKeyframes>
             </ZoomPanBin>
            </Entry>
            <Entry key="CursorEffectBin">
             <CursorEffectBin id="1365"  >
              <CursorEffectKeyframes>
               <CursorEffectKeyframe id="1366" timeRangeEnd="-9999999/1" timeRangeDuration="0/1" interpolaterName=""  />
              </CursorEffectKeyframes>
             </CursorEffectBin>
            </Entry>
           </ExtraData>
          </ScreenVMFile>
          <MetaData>
           <entry key="AutoAppliedSmartFocus" val="False"/>
           <entry key="WinSubProjectDisplayName" val=""/>
          </MetaData>
         </UnifiedMedia>
        </Medias>
       </GenericTrack>
       <GenericTrack id="1367"  >
        <Attributes>
         <Attribute id="1368" value="" name="ident"/>
         <Attribute id="1369" value="0" name="audioMuted"/>
         <Attribute id="1370" value="0" name="videoHidden"/>
        </Attributes>
        <MetaData>
         <entry key="IsLocked" val="False"/>
         <entry key="WinTrackHeight" val="62"/>
        </MetaData>
        <Medias>
        </Medias>
       </GenericTrack>
      </Tracks>
     </GenericMixer>
    <CaptionAttributes id="1371"  >
     <Attribute id="1372" value="1" name="captionsEnabled"/>
     <Attribute id="1373" value="Arial" name="captionsFontName"/>
     <Attribute id="1374" value="28" name="captionsFontSize"/>
     <Attribute id="1375" value="(0,0,0,255)" name="captionsBackgroundColor"/>
     <Attribute id="1376" value="(255,255,255,255)" name="captionsForegroundColor"/>
     <Attribute id="1377" value="en" name="lang"/>
     <Attribute id="1378" value="0" name="captionsAlignment"/>
     <Attribute id="1379" value="1" name="captionsDefaultFontSize"/>
     <Attribute id="1380" value="0.5" name="captionsOpacity"/>
     <Attribute id="1381" value="1" name="captionsBackgroundEnabled"/>
     <Attribute id="1382" value="1" name="captionsBackgroundOnlyAroundText"/>
    </CaptionAttributes>
    <Parameters>
     <VectorParam id="1383"  name="eyePosition">
      <InterpolatingParam id="1384" interp="linr"  time="0/1" value="0" leadInLength="0/1"  />
      <InterpolatingParam id="1385" interp="linr"  time="0/1" value="0" leadInLength="0/1"  />
      <InterpolatingParam id="1386" interp="linr"  time="0/1" value="3000" leadInLength="0/1"  />
     </VectorParam>
     <VectorParam id="1387"  name="eyeLookAtPosition">
      <InterpolatingParam id="1388" interp="linr"  time="0/1" value="0" leadInLength="0/1"  />
      <InterpolatingParam id="1389" interp="linr"  time="0/1" value="0" leadInLength="0/1"  />
      <InterpolatingParam id="1390" interp="linr"  time="0/1" value="0" leadInLength="0/1"  />
     </VectorParam>
     <VectorParam id="1391"  name="eyeUpVector">
      <InterpolatingParam id="1392" interp="linr"  time="0/1" value="0" leadInLength="0/1"  />
      <InterpolatingParam id="1393" interp="linr"  time="0/1" value="1" leadInLength="0/1"  />
      <InterpolatingParam id="1394" interp="linr"  time="0/1" value="0" leadInLength="0/1"  />
     </VectorParam>
     <InterpolatingParam id="1395" interp="linr"  time="0/1" value="0.23885785" leadInLength="0/1"  name="fov"/>
     <InterpolatingParam id="1396" interp="linr"  time="0/1" value="1.5" leadInLength="0/1"  name="nearClipDistance"/>
     <InterpolatingParam id="1397" interp="linr"  time="0/1" value="6000" leadInLength="0/1"  name="farClipDistance"/>
    </Parameters>
   </Timeline>
  </Project>
 </GoProject>
</CSMLData>

</Project_Data>
